<?xml version="1.0" encoding="UTF-8"?>
<svg id="a" data-name="Layer 1" xmlns="http://www.w3.org/2000/svg" viewBox="0 0 100 100">
  <path d="M85.37,66.97c-3.79-1.29-8.67-3.22-12.01-4.95,1.64-.48,3.35-2.07.79-3.06-3.93-1.57-7.49-3.51-10.68-5.81-6.62-4.7-12.09-10.6-18.06-16.25-1.22-1.52-4.55-2.65-6.12-3.06-3.39-6.46-11.28-13.43-18.92-9.85-1.88.78-3.5,2.19-4.48,3.34,0,0-6.52,3.85-6.52,3.85,2.23.82,5.55,1.86,7.62,2.75,6.22,15.56,4.27,22.72,20.34,33.45v2.59l-5.21,7.47s-7.16,2.69-10.18,3.45l-.35,3h31.64l-.12-3-5.73-1.75,2.98-7.67s.67-.08,1.02-.13c4.75-.69,11.07-2.55,15.07-4.11,7.03,2.82,16.72,5.7,24.18,3.3v-1.96c-1.36-.31-3.11-.84-5.26-1.57ZM43.62,77.37l-5.67,2.87-1.1-2.51,4.87-7.77,4.27,1.8-2.36,5.62Z"/>
</svg>