<?xml version="1.0" encoding="UTF-8"?>
<svg id="a" data-name="Layer 1" xmlns="http://www.w3.org/2000/svg" viewBox="0 0 100 100">
  <path d="M29,55.9l-8.29-3.49-1.06,2.51s17.78,8.83,21.64,9.83c0,0,0,0,0,0l-17.66,1.5.23,2.72,24.25-2.06h0s0,0,0,0l.68-.06-16.14,10.3,1.47,2.3,20.52-13.09h0s0,0,0,0l.58-.37h0s-9.5,16.62-9.5,16.62l2.36,1.35,10.94-19.13c.47-.11.94-.24,1.4-.38l-.61,16.92,2.72.1.65-18c1.05-.44,2.03-.93,2.92-1.46l5.62,11.72,2.45-1.18-5.82-12.15c1.52-1.28,2.63-2.74,3.21-4.3l7.15,5.33,1.63-2.19-8.3-5.72c-.2-2.98-2.27-6.16-5.52-8.24,0,0,0,0,0,0l12.67,2.01.43-2.69-24.04-3.81h0s0,0,0,0h0s-.67-.11-.67-.11l18.13-6.13-.87-2.58-23.05,7.8h0s0,0,0,0l-.64.22,13.2-13.86-1.97-1.88-16.79,17.62h0s0,0,0,0l-.03.04h0c-.11.02-.22.05-.32.07l5.14-18.02-2.63-.75-5.59,19.6c-.71.23-1.39.49-2.04.76l-3.13-15.04-2.67.56,3.28,15.73c-1.29.74-2.41,1.57-3.34,2.48l-6.99-8.49-2.11,1.74,7.35,8.92c-.78,1.27-1.2,2.64-1.2,4.06,0,0,1.09-.8,3-1.87.71-.4,1.55-.84,2.48-1.28.56-.27,1.16-.55,1.8-.82.59-.26,1.22-.51,1.88-.75.23-.09.46-.17.7-.25.22-.08.45-.16.68-.23-.18.39-.34.78-.48,1.19-.41,1.2-.63,2.49-.64,3.83v.08c0,.66.05,1.3.15,1.94.19,1.22.56,2.37,1.09,3.44-.54-.18-1.06-.36-1.57-.55-.34-.13-.67-.26-.99-.38h0c-4.94-2-8.09-4.32-8.09-4.32M66.58,56.65c-.76.37-1.6.75-2.49,1.11-.22.09-.45.18-.68.27-.2.07-.4.15-.61.23-.5.18-1.02.37-1.55.54.38-.76.68-1.57.89-2.41.17-.65.28-1.31.33-2,.03-.33.05-.67.05-1.01,0-.98-.11-1.94-.34-2.85-.15-.66-.37-1.31-.63-1.92-.05-.13-.1-.25-.17-.37.48.16.95.33,1.4.5,5.61,2.08,9.26,4.77,9.26,4.77,0,0-.76.56-2.11,1.36-.88.53-2.02,1.15-3.36,1.79Z"/>
</svg>