<?xml version="1.0" encoding="UTF-8"?>
<svg id="Layer_1" xmlns="http://www.w3.org/2000/svg" version="1.1" viewBox="0 0 1920 1080">
  <!-- Generator: Adobe Illustrator 29.5.0, SVG Export Plug-In . SVG Version: 2.1.0 Build 137)  -->
  <path d="M759.7,569.5c-6.4-20.9-12.9-41.7-19.4-62.5-6.4-20.7-11.9-39.8-16.4-57.2-4.5-17.4-6.7-31.2-6.7-41.3s1.6-18,6.4-23.5c24.5-27.4,50.5,24.4,54,27.5l.5-54.4c-5.5-4.3-11.6-7.5-18.5-9.7-6.8-2.1-14-3.2-21.4-3.2-16.8,0-29.7,5.7-38.7,17-9,11.4-13.5,26.4-13.5,45.2s2.2,27.8,6.5,46c4.3,18.2,9.7,37.4,16.1,57.8,6.5,20.3,12.8,40.6,19.1,60.7,6.2,20.2,11.4,38.8,15.5,56,4.1,17.2,6.2,31.3,6.2,42.2s-2.2,17.8-6.5,24.1c-2.4,3.4-5.4,5.9-9.2,7.5v-.3c-21.7,9.6-42.4-31.2-45.5-33.9l-.6,54.5v1.3s.7.5.7.5c3.2,1.9,6.4,3.7,9.7,5.1,7.2,3.2,14.6,5.1,22.4,5.7.6,0,1.2,0,1.8.1,1.8.2,3.5.2,5.3.2s4.2,0,6.2-.3c0,0,25.1-3.6,34.2-17.8,8.2-12.9,14.4-27.4,14.4-46.6s-2.2-25.2-6.5-42.8c-4.3-17.6-9.7-36.8-16.1-57.8Z"/>
  <path d="M875.7,524.7c13.1,8.4,17.4,20.7,17.8,62.4.2,21.2-3,42.4-7.7,62.7-3.1,13.2-6.6,27-12.3,39.3-3.7,8-7.9,12-12.6,12s-11.3-6.7-16.4-20.2c-5.1-13.5-9-32.3-11.7-56.3-2.7-24-4.1-52.1-4.1-84.2s.6-36.3,1.8-52.4c.9,0,1.9,0,2.8,0,10.6-.2,21.5-.3,32.8-.3s21,.1,31.4.3c10.4.2,18.3.5,23.8.9,0-6.2-.1-11.9-.3-17-.2-5.1-.5-11.7-.9-19.9-.4-13.7-1.8-26.8-4.1-39.3-2.3-12.5-5.6-23.8-9.7-33.7-4.1-10-9.4-17.8-15.8-23.5-6.5-5.7-13.8-8.5-22-8.5s-17.9,3.2-25.5,9.7c-7.6,6.5-14.3,15.5-19.9,27.3-5.7,11.7-10.5,25.6-14.4,41.6-3.9,16-6.8,33.7-8.8,53.1-2,19.4-2.9,40-2.9,61.9,0,36.4,2.3,69.1,7,98.2,4.7,29.1,11.9,52.2,21.7,69.2,9.8,17,21.9,25.5,36.4,25.5s20.3-5.3,28.1-15.8c13-17.5,18.6-39.8,22.8-60.9,4.3-21.8,6.7-43.9,8.1-66,.3-5.5,2.3-66.1,1.5-66.1h-46.8ZM844.8,407.1c3.3-9.2,6.8-16.1,10.6-20.8,3.7-4.7,7.7-7,12-7s8.7,3.4,12,10.3c3.3,6.8,6,16,7.9,27.6,2,11.5,2.9,24.5,2.9,39v3.2c-.5,0-1,0-1.5,0-6.1.2-13.8.3-23.2.3s-21.8,0-32.2-.3c.9-6.6,1.8-12.9,2.9-18.8,2.3-13.1,5.2-24.2,8.5-33.4Z"/>
  <path d="M1233,581c-.2-29.3-.2-58.6,0-87.7.2-29.1.3-56.4.3-81.8s.2-46.7.6-63.9h-32.8c0,20.3.1,43.8.3,70.4.2,26.6.3,54.4.3,83.6v86.2c0,20.1-.1,51.2-.2,67.6-5.7,9.2-10.6,16.8-14.7,22.7-5.3,7.6-10.1,13-14.4,16.1-4.3,3.1-8.6,4.7-12.9,4.7-9,0-14.5-5.7-16.4-17-.8-3.1-1.3-8.2-1.5-15.2-.2-7-.3-15.4-.3-25.2v-194.4c0-21.7.1-41.3.3-58.6.2-17.4.3-31,.3-40.8h-32.3v39.3c0,16.8,0,35.7-.3,56.6-.2,20.9-.3,42.5-.3,64.8v119c0,18,.3,32.5.9,43.7.6,11.1,1.5,19.4,2.6,24.9,2.3,12.5,6.7,21.3,13.2,26.4,6.5,5.1,13.8,7.6,22,7.6s15.6-2.4,22.3-7.3c6.7-4.9,13.7-13.2,21.1-24.9,3.5-5.6,7.4-12.1,11.6-19.5,1.1,16.1,0,43.4-19.2,49l50.3-.8c-.4-16.8-.6-37.9-.6-63.3s0-52.8-.3-82.1Z"/>
  <path d="M1073.2,381.6c-2.3-12.5-6.7-21.3-13.2-26.4-6.5-5.1-13.8-7.6-22-7.6s-15.6,2.4-22.3,7.3c-6.7,4.9-13.7,13.2-21.1,24.9-3.5,5.6-7.4,12.1-11.6,19.5-1.1-16.1,0-43.4,19.2-49l-50.3.8c.4,16.8.6,37.9.6,63.3s0,52.8.3,82.1c.2,29.3.2,58.6,0,87.7-.2,29.1-.3,56.4-.3,81.8s-.2,46.7-.6,63.9h32.8c0-20.3-.1-43.8-.3-70.4-.2-26.6-.3-54.4-.3-83.6v-86.2c0-20.1.1-51.2.2-67.6,5.7-9.2,10.6-16.8,14.7-22.7,5.3-7.6,10.1-13,14.4-16.1,4.3-3.1,8.6-4.7,12.9-4.7,9,0,14.5,5.7,16.4,17,.8,3.1,1.3,8.2,1.5,15.2.2,7,.3,15.4.3,25.2v194.4c0,21.7-.1,41.3-.3,58.6-.2,17.4-.3,31-.3,40.8h32.3v-39.3c0-16.8,0-35.7.3-56.6.2-20.9.3-42.5.3-64.8v-119c0-18-.3-32.5-.9-43.7-.6-11.1-1.5-19.4-2.6-24.9Z"/>
</svg>