<svg xmlns="http://www.w3.org/2000/svg" fill="none" viewBox="0 0.72 50 35.56">
<path d="M6.71944 21.1968C6.13248 19.2862 5.54278 17.3875 4.95217 15.4942C4.36522 13.6037 3.86498 11.8648 3.45511 10.2755C3.04524 8.68806 2.83985 7.43016 2.83985 6.50272C2.83985 5.57527 2.98591 4.85686 3.42681 4.35936C5.66602 1.85908 8.03393 6.58396 8.35617 6.86785L8.40363 1.89833C7.9034 1.5049 7.342 1.21005 6.71853 1.01379C6.09505 0.820267 5.44328 0.72168 4.76595 0.72168C3.23055 0.72168 2.05298 1.23835 1.23325 2.2726C0.409867 3.30868 0 4.68251 0 6.39591C0 7.53605 0.196261 8.93818 0.589697 10.5986C0.983132 12.2564 1.47424 14.0145 2.0612 15.8712C2.6509 17.7279 3.22964 19.5737 3.8029 21.4104C4.37343 23.2506 4.84537 24.9522 5.22146 26.5223C5.59482 28.0924 5.78286 29.3786 5.78286 30.3763C5.78286 31.27 5.5866 32.003 5.19316 32.5726C4.97682 32.8875 4.69566 33.1148 4.35061 33.2554V33.2271C2.37065 34.1062 0.482894 30.3818 0.199 30.1289L0.148793 35.1012V35.2189L0.216344 35.2609C0.505715 35.4353 0.797825 35.595 1.09815 35.7301C1.75266 36.0195 2.43547 36.1939 3.14566 36.2468C3.1986 36.2523 3.25246 36.255 3.30814 36.2578C3.46789 36.2714 3.62855 36.2778 3.7883 36.2778C3.97908 36.2778 4.16713 36.2696 4.3497 36.2523C4.3497 36.2523 6.64276 35.9209 7.46797 34.6311C8.21924 33.4562 8.77973 32.1253 8.77973 30.3754C8.77973 29.3786 8.58346 28.075 8.19003 26.4684C7.79659 24.8618 7.30822 23.1064 6.71853 21.1958L6.71944 21.1968Z" fill="white"/>
<path d="M17.3086 17.1003C18.509 17.8661 18.8961 18.9889 18.9362 22.7991C18.9563 24.7362 18.6651 26.6705 18.2315 28.5245C17.9504 29.7294 17.6272 30.9892 17.1042 32.1165C16.7646 32.8486 16.3812 33.2138 15.9531 33.2138C15.4181 33.2138 14.9179 32.5985 14.4542 31.3671C13.9895 30.1357 13.6326 28.4232 13.3834 26.2278C13.1333 24.0333 13.0091 21.4728 13.0091 18.5462C13.0091 16.8228 13.0657 15.2289 13.178 13.7611C13.262 13.7592 13.3478 13.7565 13.4373 13.7556C14.4012 13.7383 15.3999 13.7291 16.435 13.7291C17.399 13.7291 18.3529 13.7383 19.2986 13.7556C20.2434 13.7739 20.9664 13.8003 21.4666 13.8359C21.4666 13.2654 21.4575 12.7478 21.4402 12.2832C21.4219 11.8195 21.3954 11.2124 21.3598 10.463C21.3242 9.2142 21.1992 8.01838 20.9856 6.87641C20.771 5.73445 20.4771 4.70841 20.1019 3.79831C19.7277 2.8882 19.2457 2.17436 18.6569 1.65678C18.0681 1.14011 17.399 0.880859 16.6496 0.880859C15.7933 0.880859 15.0165 1.17571 14.3209 1.76449C13.6253 2.35328 13.0174 3.18305 12.5007 4.25381C11.9831 5.32458 11.5459 6.59161 11.1889 8.05489C10.832 9.51909 10.5645 11.133 10.3856 12.8994C10.2067 14.6657 10.1182 16.5489 10.1182 18.5471C10.1182 21.8662 10.3327 24.8558 10.7608 27.514C11.1889 30.1731 11.8489 32.2781 12.7417 33.8308C13.6335 35.3836 14.7399 36.1595 16.0608 36.1595C17.0594 36.1595 17.9157 35.6775 18.6304 34.7145C19.8153 33.1143 20.3265 31.0795 20.7081 29.1589C21.1024 27.1717 21.3233 25.1534 21.4438 23.1314C21.4739 22.6293 21.6519 17.0993 21.5798 17.0993L17.3095 17.1012L17.3086 17.1003ZM14.4816 6.36887C14.7846 5.53088 15.1059 4.89646 15.4455 4.46833C15.7842 4.04021 16.1502 3.82569 16.5428 3.82569C16.9709 3.82569 17.3369 4.1388 17.64 4.76227C17.9431 5.38757 18.184 6.22647 18.363 7.27806C18.541 8.33149 18.6304 9.51818 18.6304 10.8382V11.1275C18.5875 11.1293 18.5428 11.1303 18.4962 11.1321C17.9421 11.1503 17.2383 11.1586 16.3821 11.1586C15.3679 11.1586 14.3894 11.1503 13.4446 11.133C13.5231 10.5287 13.6098 9.95543 13.7056 9.41868C13.9202 8.22377 14.1785 7.20595 14.4816 6.36705V6.36887Z" fill="white"/>
<path d="M49.9197 22.2403C49.9023 19.5639 49.9023 16.8956 49.9197 14.2374C49.9379 11.5783 49.9461 9.089 49.9461 6.76946C49.9461 4.44993 49.9644 2.50466 50 0.93457H47.0022C47.0022 2.78947 47.0114 4.931 47.0287 7.35825C47.047 9.78458 47.0552 12.3278 47.0552 14.9869V22.8565C47.0552 24.6904 47.0415 27.5275 47.0342 29.0246C46.5157 29.8635 46.0675 30.5563 45.6905 31.1004C45.2085 31.796 44.7721 32.2862 44.3787 32.5728C43.9862 32.8576 43.5946 33.0009 43.2011 33.0009C42.3805 33.0009 41.8812 32.4833 41.7023 31.4482C41.6311 31.1625 41.5863 30.6987 41.5681 30.0561C41.5507 29.4134 41.5416 28.6457 41.5416 27.7539V10.0082C41.5416 8.02736 41.5507 6.24275 41.5681 4.65532C41.5863 3.06697 41.5945 1.82642 41.5945 0.93457H38.6506V4.52113C38.6506 6.05471 38.6424 7.77724 38.6241 9.68691C38.6068 11.5957 38.5977 13.5683 38.5977 15.6021V26.4686C38.5977 28.1099 38.6241 29.4399 38.678 30.4568C38.7319 31.4737 38.8122 32.2314 38.919 32.7316C39.1335 33.8736 39.5343 34.676 40.1239 35.1406C40.7127 35.6043 41.3818 35.8362 42.1313 35.8362C42.8807 35.8362 43.559 35.6126 44.1651 35.1671C44.7721 34.7207 45.4148 33.9621 46.0921 32.8923C46.4144 32.3838 46.7685 31.7896 47.1556 31.1122C47.2569 32.5792 47.1574 35.0722 45.4047 35.5852L50 35.5149C49.9653 33.9804 49.9461 32.0525 49.9461 29.7329C49.9461 27.4134 49.9379 24.915 49.9197 22.2385V22.2403Z" fill="white"/>
<path d="M35.3325 4.04013C35.1179 2.89816 34.7163 2.09577 34.1275 1.63113C33.5387 1.16741 32.8696 0.935547 32.1202 0.935547C31.3707 0.935547 30.6925 1.15919 30.0864 1.60466C29.4793 2.05104 28.8367 2.80961 28.1593 3.87947C27.8371 4.38792 27.4829 4.98218 27.0959 5.65951C26.9946 4.19257 27.0941 1.6996 28.8467 1.18658L24.2515 1.25687C24.2862 2.79136 24.3053 4.71928 24.3053 7.0379C24.3053 9.35652 24.3135 11.8559 24.3318 14.5323C24.3491 17.2088 24.3491 19.877 24.3318 22.5352C24.3135 25.1944 24.3053 27.6837 24.3053 30.0032C24.3053 32.3227 24.2871 34.268 24.2515 35.8381H27.2492C27.2492 33.9832 27.2401 31.8417 27.2228 29.4144C27.2045 26.9881 27.1963 24.4449 27.1963 21.7858V13.9162C27.1963 12.0823 27.21 9.24516 27.2173 7.7481C27.7358 6.90919 28.184 6.21634 28.561 5.67229C29.043 4.9767 29.4793 4.48651 29.8728 4.19987C30.2653 3.91507 30.6569 3.77175 31.0503 3.77175C31.871 3.77175 32.3703 4.28933 32.5492 5.3245C32.6204 5.61022 32.6651 6.07394 32.6834 6.71658C32.7007 7.35922 32.7099 8.12692 32.7099 9.01877V26.7644C32.7099 28.7453 32.7007 30.5299 32.6834 32.1174C32.6651 33.7057 32.6569 34.9463 32.6569 35.8381H35.6008V32.2515C35.6008 30.718 35.6091 28.9954 35.6273 27.0858C35.6447 25.177 35.6538 23.2044 35.6538 21.1705V10.3041C35.6538 8.66276 35.6273 7.33275 35.5735 6.31584C35.5196 5.29894 35.4393 4.54128 35.3325 4.04104V4.04013Z" fill="white"/>
</svg>