<?xml version="1.0" encoding="UTF-8"?>
<svg id="Layer_1" data-name="Layer 1" xmlns="http://www.w3.org/2000/svg" viewBox="0 0 1080 1080">
  <defs>
    <style>
      .cls-1 {
        fill: #707070;
      }
    </style>
  </defs>
  <path class="cls-1" d="M527.21,660.76c33.79,22.45,67.33,52.41,109.74,57.36,37.95,4.43,97.91-8.04,97.91-56.17,0-63.62-89.18-60.04-78.42,6.77.84,5.24,7.25,13.28,6.6,16.03-.46,1.97-33.58,19.39-35.59,19.23-5.89-.47-14.28-28.98-14.96-35.11-11.97-107.21,137.64-133.43,162.15-30.73,12.55,52.59-14.57,94.14-63.06,113.58-79.4,31.83-156.87-11.8-215.48-63.21-49.66,42.89-112.97,83-181.82,71.03-73.57-12.79-113.12-98.49-57.96-156.36,44.4-46.58,111.95-29.44,164.11-7.26,11.35,4.83,67.1,37.31,71.11,37.22,4.43-.11,26.66-25.74,31-31.13,6.35-7.9,29.4-38.67,32.31-46.02,1.58-3.98-1.01-3.1-3.39-3.42-17.24-2.31-31.24-.49-50.07-5.28-7.41-1.89-26.25-10.96-30.76-10.72-4.58.25-11.71,9.94-16.42,13.31-33.74,24.16-82.74,37.75-117.12,7.26-31.32-27.79-25.06-77,4.9-103.33,13.52,5.28,20.81,18.88,33.05,26.23-46.55,53.65,22.73,65.7,57.66,32.16-15.8-19.47-32.46-33.27-40.93-58.05-25.65-75.08,47.17-165.98,123.65-123.53,67.87,37.68,10.1,124.89-15.87,171.26,26.45,9.98,54.97,6.78,82.62,6.57,37.19-66.3,70.31-151.86,146.32-181.96,39.5-15.65,77.9-12.58,105.24,22.35,43.24,55.23-11.22,112.91-55.52,144.77-52.12,37.48-108.59,44.29-170.2,55.64-22.4,40.42-48.52,78.34-80.8,111.52ZM635.55,499.58c47.07-6.17,90.46-18.39,127.86-48.4,20-16.05,56.21-48.16,36.78-75.76-15-21.31-39.58-16.23-60.18-7.48-52.68,22.38-77.15,85.6-104.47,131.65ZM468.98,364.3c-17.94,3.01-30.01,19.49-35.77,35.65-11.94,33.51,4.31,56.87,28.3,78.89,13.77-21.15,49.2-77.15,41.6-101.41-3.85-12.28-23.15-14.98-34.13-13.13ZM458.06,663.14c-44.39-23.26-139.37-78.32-177.1-21.53-19.19,28.89,2.42,65.87,33.72,73.78,51.88,13.11,106.26-18.97,143.38-52.25Z"/>
</svg>