<?xml version="1.0" encoding="UTF-8"?>
<svg xmlns="http://www.w3.org/2000/svg" viewBox="0 0 1080 1080">
  <defs>
    <style>
      .cls-1 {
        isolation: isolate;
      }

      .cls-2, .cls-3 {
        fill: #707070;
      }

      .cls-3 {
        mix-blend-mode: multiply;
        opacity: .4;
      }
    </style>
  </defs>
  <g class="cls-1">
    <g id="Layer_1" data-name="Layer 1">
      <g>
        <path class="cls-2" d="M658.32,837.46h-54.12c-17.2,0-31.15-13.94-31.15-31.15s13.95-31.15,31.15-31.15h54.12c10.77,0,20.8-5.79,26.18-15.12l56.72-98.24c8.6-14.9,27.65-20.01,42.55-11.4,14.9,8.6,20,27.65,11.4,42.55l-56.72,98.24c-16.48,28.54-47.18,46.26-80.13,46.26Z"/>
        <path class="cls-2" d="M421.68,242.54h54.12c17.2,0,31.15,13.94,31.15,31.15,0,17.2-13.95,31.15-31.15,31.15h-54.12c-10.77,0-20.8,5.79-26.18,15.12l-56.72,98.24c-8.6,14.9-27.65,20.01-42.55,11.4-14.9-8.6-20-27.65-11.4-42.55l56.72-98.24c16.48-28.54,47.18-46.26,80.13-46.26Z"/>
        <path class="cls-2" d="M769.29,603.44c-30.2,0-59.63-15.65-75.74-43.56l-82.52-142.92h-142.07l-71.83,124.42c-8.6,14.9-27.65,19.99-42.55,11.4-14.9-8.6-20-27.65-11.4-42.55l89.82-155.57h214l100.5,174.06c6.83,11.83,22.04,15.96,33.91,9.19,5.81-3.31,9.97-8.68,11.72-15.13,1.75-6.45.87-13.19-2.47-18.98l-106.16-183.87c-5.38-9.32-15.42-15.12-26.18-15.12h-53.23c-17.2,0-31.15-13.94-31.15-31.15s13.95-31.15,31.15-31.15h53.23c32.95,0,63.65,17.73,80.13,46.26l106.16,183.87c11.7,20.26,14.77,43.85,8.64,66.43-6.12,22.58-20.69,41.39-41.02,52.97-13.54,7.71-28.33,11.38-42.94,11.38Z"/>
        <path class="cls-3" d="M392.49,424.84l-49.3,85.4c-8.6,14.9-3.5,33.94,11.4,42.55,14.89,8.59,33.95,3.5,42.55-11.4l48.31-83.68-52.96-32.87Z"/>
        <path class="cls-2" d="M475.8,837.46h-54.12c-32.95,0-63.65-17.73-80.13-46.26l-106.16-183.87c-11.7-20.26-14.77-43.85-8.64-66.43,6.12-22.58,20.69-41.39,41.02-52.97,41.54-23.65,94.78-9.22,118.68,32.18l82.52,142.92h142.07l78.21-135.47c8.6-14.9,27.65-20,42.55-11.4,14.9,8.6,20,27.65,11.4,42.55l-96.2,166.62h-214l-100.5-174.07c-6.83-11.83-22.04-15.96-33.91-9.19-5.81,3.31-9.97,8.68-11.72,15.13-1.75,6.45-.87,13.19,2.47,18.98l106.16,183.87c5.38,9.32,15.42,15.12,26.18,15.12h54.12c17.2,0,31.15,13.94,31.15,31.15s-13.95,31.15-31.15,31.15Z"/>
        <path class="cls-3" d="M693.55,559.88l-11.48-19.88-47.51,82.3,52.96,32.87,36.97-64.04c-12.44-7.37-23.22-17.88-30.93-31.24Z"/>
      </g>
    </g>
  </g>
</svg>