<?xml version="1.0" encoding="UTF-8"?>
<svg id="Layer_1" data-name="Layer 1" xmlns="http://www.w3.org/2000/svg" viewBox="0 0 1080 1080">
  <defs>
    <style>
      .cls-1 {
        fill: #707070;
      }
    </style>
  </defs>
  <g>
    <path class="cls-1" d="M701.73,564.27v-102.28c0-34.67-14.56-53.74-41.6-53.74-14.21,0-31.2,5.2-43.68,13.52,9.71,11.44,12.83,24.96,12.83,54.43v91.87c0,64.14,27.04,103.66,76.62,103.66,16.64,0,38.83-4.51,52.7-12.13-33.63-9.71-56.86-40.9-56.86-95.34Z"/>
    <path class="cls-1" d="M460.09,576.75c45.76,0,68.3-27.04,68.3-55.12,0-30.16-26-61.37-75.93-61.37-46.11,0-96.03,30.16-96.03,99.85,0,57.21,37.79,96.38,91.87,96.38,44.72,0,76.27-25.66,76.27-62.06,0-3.12-.35-6.59-.69-10.05-14.91,12.83-32.94,18.72-49.23,18.72-25.74,0-49.12-14.5-55.04-41.44,9.8,10.48,24.7,15.09,40.47,15.09ZM451.76,500.13c9.36,0,13.87,5.55,13.87,12.48,0,13.17-16.29,32.59-47.15,32.59-.08,0-.17,0-.25,0,1.02-23.55,14.85-45.07,33.53-45.07Z"/>
    <path class="cls-1" d="M611.94,461.99c0-32.94-13.52-53.74-41.95-53.74-12.83,0-29.47,4.16-43.34,13.52,9.36,11.44,12.83,25.31,12.83,54.43v126.54c0,32.94,13.52,53.74,41.6,53.74,12.83,0,29.82-4.16,43.68-13.52-9.71-11.44-12.83-25.31-12.83-54.43v-126.54Z"/>
    <path class="cls-1" d="M368.56,475.86c-12.48-9.71-28.43-15.6-43.68-15.6-21.15,0-40.22,10.05-45.42,35.02l-13.77,67.34-19.17-69.77c-5.89-21.84-14.91-31.2-28.43-31.2s-22.88,9.36-28.78,31.2l-19.09,69.49-13.5-67.06c-5.2-24.96-24.62-35.02-45.76-35.02-14.91,0-31.2,5.89-43.68,15.6,5.2,3.81,11.44,14.56,15.25,27.74l31.2,105.05c9.71,32.94,23.92,47.84,46.11,47.84,19.42,0,33.28-14.91,42.64-47.84l15.43-53.63,15.43,53.63c9.36,32.94,23.58,47.84,42.64,47.84,22.19,0,36.4-14.91,46.11-47.84l31.2-105.05c3.81-13.17,10.05-23.92,15.25-27.74Z"/>
    <path class="cls-1" d="M808.35,460.26c-55.82,0-93.26,38.14-93.26,95.34,0,61.02,37.44,101.58,93.26,101.58s92.57-40.56,92.57-101.58c0-57.2-37.1-95.34-92.57-95.34ZM808.35,616.27c-14.56,0-20.11-23.23-20.11-60.67,0-34.67,5.55-55.12,20.11-55.12s19.42,20.46,19.42,55.12c0,37.44-5.55,60.67-19.42,60.67Z"/>
  </g>
  <path class="cls-1" d="M920.15,586.15c-14.56,0-20.11-23.23-20.11-60.67,0-34.67,5.55-55.12,20.11-55.12s19.42,20.46,19.42,55.12c0,37.44-5.55,60.67-19.42,60.67ZM920.15,627.06c55.47,0,92.57-40.56,92.57-101.58,0-57.2-37.1-95.34-92.57-95.34s-93.26,38.14-93.26,95.34c0,61.02,37.44,101.58,93.26,101.58Z"/>
  <path class="cls-1" d="M900.91,555.6c0-43.73-21.7-76.29-56.69-89.22-11.13,15.68-17.33,35.81-17.33,59.1,0,46.07,21.35,80.46,55.83,94.56,11.65-16.91,18.19-38.87,18.19-64.44Z"/>
</svg>