<?xml version="1.0" encoding="UTF-8"?>
<svg id="Layer_1" data-name="Layer 1" xmlns="http://www.w3.org/2000/svg" viewBox="0 0 1000 1000">
  <defs>
    <style>
      .cls-1 {
        fill: #707070;
      }
    </style>
  </defs>
  <path class="cls-1" d="M499.55,194.93c-132.34,0-239.98,107.64-239.98,239.99s107.64,239.96,239.98,239.96,239.96-107.67,239.96-239.96-107.68-239.99-239.96-239.99h0ZM686.7,300.98c-12.26,8.31-25.22,15.79-38.61,22.38-7.9-15.85-17.52-30.94-28.65-44.83,9.84-6.02,19.25-12.7,27.94-20.02,14.86,12.46,28.07,26.76,39.32,42.47h0ZM585.74,221.38c19.14,7.73,37.19,18.12,53.79,30.85-8.26,6.84-17.15,13.09-26.46,18.65-11.77-13.5-25.05-25.75-39.49-36.51,4.37-4.03,8.48-8.34,12.16-12.99h0ZM604.35,275.86c-12.89,6.95-26.48,12.62-40.42,16.88-5.82-13.35-12.53-26.48-20.02-39.11,7.74-3.41,15.07-7.65,21.89-12.81,14.06,10.23,27,22.02,38.55,35.04h0ZM575.97,217.73c-3.25,3.88-6.78,7.49-10.62,10.84-12.67-8.69-26.15-16.1-40.21-22.25,17.47,1.88,34.51,5.65,50.83,11.41h0ZM557.19,234.88c-5.77,4.11-11.95,7.54-18.4,10.29-6.96-11-14.82-21.76-23.15-32.24,14.55,5.97,28.49,13.33,41.55,21.94h0ZM504.46,214.63c8.83,10.65,17.15,22.02,24.77,33.94-8.04,2.47-16.38,3.96-24.77,4.35v-38.29h0ZM504.46,262.84c10.3-.49,20.43-2.32,30.17-5.58,7.33,12.19,13.92,25,19.69,38.17-16.32,4.19-33.07,6.51-49.86,6.88v-39.48h0ZM494.47,215.08v37.84c-8.26-.43-16.46-1.91-24.42-4.35,7.37-11.51,15.59-22.73,24.42-33.5h0ZM460.59,245.19c-6.59-2.78-12.7-6.23-18.42-10.31,12.96-8.57,26.84-15.88,41.39-21.85-8.18,10.24-15.96,21-22.97,32.16h0ZM474.43,206.2c-14.18,6.19-27.73,13.62-40.52,22.34-3.88-3.45-7.37-7.08-10.65-10.86,16.53-5.8,33.63-9.61,51.16-11.47h0ZM638.85,618.08c-31.95-17.53-32.57-41.8-30.86-50.74,1.7-9.09,7.93-5.1,11.91-5.1,20.96,0,43.03-6.23,70.22-33.98,30.67-31.3,40.29-100.83-6.84-146.15-50.78-48.88-104.78-40.33-139.61,3.59-7.13,9.01-24.55,15.6-39.62,15.09-22.33-.85-8.26,16.74-8.26,20.38s-3.39,6.27-5.38,5.7c-7.59-2.17-4.54,9.05-4.54,12.45s-3.13,5.12-4.79,5.12c-9.39,0-6.81,8.44-6.52,10.78.27,2.23-.56,6.15-3.69,7.89-2.99,1.69-6.51,9.07-6.51,14.74,0,10.21,9.34,17.27,24.98,28.91,15.52,11.62,17.51,22.66,17.79,30.61.3,7.9,1.02,20.71,4.57,29.17,4.2,10.17,3.65,28.89-17.88,29.72-26.32,1.07-73.06,22.1-77.02,23.52-14.85,5.26-34.5,7.17-49.81,3.33-8.25-5.84-16.11-12.22-23.54-19.08-3.08-10.59,2.25-21.95,7.62-29.6,8.78,8.79,21.82,8.21,29.15,8.46,7.36.32,43.33-5.34,48.43-7.04,5.12-1.7,7.36-1.13,10.49,0,13.72,4.98,32.57,6.48,40.21-19.82,7.66-26.34-10.45-18.97-12.72-17.84-2.28,1.16-5.42.85-4.28-1.4,3.37-6.72-1.66-6.02-4.52-6.27-7.33-.72-16.96,7.1-20.09,9.92-3.13,2.84-6.23,2.55-7.37,1.98-9.76-4.85-38.84,2.17-47.88-13.6.85-4.21-7.39-68.25-11.58-79.29-.92-2.37-1.73-6.23,1.1-10.45,7.39-11.1,27.76.81,38.82.55,13.23-.38,15.35-5.89,18.98-10.35,3.47-4.34,6.02-1.9,7.93-3.1,2.41-1.57.14-4.69.99-6.38.87-1.69,1.86-.85,4.08-2.83,2.29-2.02-.31-6.23.86-7.93,3.26-4.91,12.17-1,6.83-13.85-2.93-7.08,1.14-14.76,5.09-19.85,6.43-8.27,31.2-43.14-12.46-79.33-41.65-34.51-83.86-31.74-111.05-2.28-27.16,29.45-13.59,72.54-10.76,83.85,2.83,11.34-5.33,21.61-14.72,26.06-7.45,3.52-24.43,14.84-37.23,26,2.05-92.42,58.16-173.71,144.16-208.32,3.66,4.58,7.75,8.91,12.17,12.98-9.62,7-30.51,25.7-30.51,25.7,0,0,2.86.43,5.5,1.08,1.86.43,5.76,1.61,5.76,1.61,0,0,18.41-15.65,27.04-21.89,6.72,5.13,14.1,9.38,21.89,12.8-4.19,7.08-14.66,26.81-14.66,26.81,0,0,2.42,1.44,4.58,2.9,2.19,1.45,3.55,2.74,3.55,2.74,0,0,11.46-21.57,15.78-28.78,9.64,3.2,19.66,5.06,29.82,5.51v39.53c-5.62-.16-20.12-.75-26-1.36l-3.69-.37,2.06,3.08c1.56,2.29,2.77,4.53,3.84,6.59l.42.85.97.08c4.25.35,17.49.82,22.41.95v71.93h10v-16.45c14.63-.71,26.79-1.72,41.51-2.99l.64-.07,12.9-11.42-7.03.61c-15.55,2.03-29.2,2.97-41.59,3.66,0,0-4.21.25-6.43.38v-45.65c18.05-.38,36.13-2.9,53.83-7.54,4.84,11.86,13.94,40.68,13.94,40.68l9.39-2.94s-9.09-28.59-13.86-40.47c14.96-4.63,29.43-10.82,43.1-18.32,11.03,13.57,20.54,28.36,28.4,44.08-7.08,3.3-19.98,7.86-19.96,7.86,10.33,1.14,18.18,3.59,18.18,3.59,0,0,3.65-1.56,5.99-2.6.91,2.06,2.71,6.24,2.71,6.24l12.92,5.74-1.49-3.59s-4.28-10.24-5.28-12.6c13.67-6.76,27.12-14.5,39.98-23.14,24.48,37.43,37.47,80.88,37.47,125.81,0,74.63-35.71,141.05-90.92,183.16h0Z"/>
  <path class="cls-1" d="M237.84,258.72l-3.74,3.31c-14.09,12.47-46.24,45.36-41.29,81.45.02.12.51,2.52.51,2.52.02.04,1.61,7.16,1.61,7.16l4.47-4.1c19.7-18.03,34.47-48.56,40.5-83.79l1.71-9.9-3.76,3.36h0Z"/>
  <path class="cls-1" d="M172.53,321.05l-1.62,4.37c-2.24,6.03-6.3,18.67-8.47,35.5-3.02,23.83-2.33,57.52,18.36,82.69-.03-.02,2.27,2.97,2.27,2.97l2.41,3.06,3.06-15.29c3.42-27.05-1.09-83.72-11-109.02l-3.43-8.58-1.57,4.3h0Z"/>
  <path class="cls-1" d="M148.69,418.53l-.31,4.45c-1.72,24.26-.47,84.1,47.98,115.83,0,.03,5.75,3.71,5.75,3.71l-.26-6.79c-.84-22.72-27.34-90.51-47.24-114.8l-5.63-6.88-.3,4.46h0Z"/>
  <path class="cls-1" d="M157.03,525.6l.83,4.1c7.08,34.39,39.7,90.1,90.06,106.25l6.88,2.23-2.49-6.8c-9.39-25.72-57.94-85.64-89.12-105.4l-7.04-4.47.87,4.08h0Z"/>
  <path class="cls-1" d="M258.2,310.52l-3.98,2.42c-37.5,22.87-55.04,50.61-53.71,84.82l.34,7.83,5.45-4.57c20.28-16.78,45.64-59.67,53.14-84.02l2.71-8.89-3.96,2.42h0Z"/>
  <path class="cls-1" d="M236.16,385.43l-2.86,2.69c-9.6,9.15-40.66,42.18-37.97,83.06.42,6.3,1.85,13.03,4.27,20.07l2.19,6.54,4.03-5.63c14.83-20.88,34.52-76,33.46-101.63l-.33-7.77-2.78,2.68h0Z"/>
  <path class="cls-1" d="M237.77,456.38l-2.13,3.13c-15.66,23.25-23.64,47.13-23.15,69.13.43,16.27,5.63,31.83,15.44,46.29l3.27,4.89,2.76-5.16c6.78-12.74,12.12-53.99,11.35-86.62-.31-11.53-1.48-21.08-3.39-27.57l-2.06-7.2-2.09,3.12h0Z"/>
  <path class="cls-1" d="M255.92,532.23l-.98,3.29c-4.71,15.1-6.94,29.86-6.55,43.89.92,31.71,14.95,56.53,41.79,73.72l4.52,2.86,1-6.11c0-.11.39-4.86.39-4.86-.75-25.79-19.96-90.73-35-110.56l-4.16-5.45-1.03,3.22h0Z"/>
  <path class="cls-1" d="M203.07,632.85l1.95,3.26c20.19,33.84,54.45,77.51,118.53,66.3l5.35-.93-3.03-4.49c-11.96-17.79-89.74-61.68-117.24-66.17l-7.51-1.24,1.95,3.27h0ZM207.76,632.34h0Z"/>
  <path class="cls-1" d="M297.87,718.8h0l-10.07,2.71,9.66,3.96c40.74,16.66,91.83,21.61,121.44,11.64,11.13-3.79,17.87-9.89,26.15-17.95,52.13,5.39,100.96,48.75,129.42,84.15,0,.02,1.54,1.75,1.54,1.75l2.21-.69c3.2-1.09,8.13-4.91,10.19-7.13l2.01-2.17-1.79-2.38c-29.69-38.81-76.19-62.89-78.22-63.85-41.85-20.39-115.71-36.32-212.53-10.04h0Z"/>
  <path class="cls-1" d="M300.02,610.44l.58,3.4c6.1,38.4,21.69,88.77,86.53,83.19l4.16-.33-1.03-4.05c-4.38-17.46-63.79-68.16-84.55-82.42l-6.23-3.23.55,3.43h0Z"/>
  <path class="cls-1" d="M758.39,255.36l1.72,9.9c6.02,35.23,20.82,65.76,40.52,83.79l4.5,4.1s1.56-7.12,1.56-7.16c0,0,.49-2.4.51-2.52,4.96-36.09-27.19-68.98-41.27-81.45l-3.76-3.31-3.77-3.36h0Z"/>
  <path class="cls-1" d="M825.9,316.75l-3.41,8.58c-9.96,25.3-14.48,81.98-11.06,109.02l3.07,15.29,2.42-3.06s2.3-2.99,2.29-2.97c20.68-25.17,21.4-58.86,18.33-82.69-2.17-16.83-6.21-29.48-8.43-35.5l-1.63-4.37-1.59-4.3h0Z"/>
  <path class="cls-1" d="M851.02,414.07l-5.66,6.88c-19.85,24.29-46.38,92.08-47.19,114.8l-.26,6.79s5.69-3.68,5.69-3.71c48.48-31.74,49.72-91.57,48.03-115.83l-.34-4.45-.26-4.46h0Z"/>
  <path class="cls-1" d="M843.83,521.52l-7.04,4.47c-31.18,19.75-79.74,79.68-89.11,105.4l-2.51,6.8,6.92-2.23c50.35-16.15,82.97-71.85,90.04-106.25l.89-4.1.82-4.08h0Z"/>
  <path class="cls-1" d="M739.75,306.94l2.58,8.93c6.96,24.51,31.48,67.9,51.44,85.08l5.41,4.66.44-7.84c2.02-34.17-15-62.25-52.03-85.84l-3.95-2.5-3.89-2.49h0Z"/>
  <path class="cls-1" d="M761.04,382.75l-.3,7.77c-1.03,25.63,18.6,80.75,33.45,101.63l4.03,5.63,2.23-6.54c2.39-7.04,3.81-13.78,4.21-20.07,2.71-40.88-28.35-73.91-37.97-83.06l-2.8-2.69-2.85-2.68h0Z"/>
  <path class="cls-1" d="M760.21,453.26l-2.14,7.2c-1.93,6.5-3.07,16.05-3.35,27.57-.81,32.63,4.56,73.88,11.3,86.62l2.78,5.16,3.31-4.89c9.79-14.46,14.96-30.02,15.36-46.29.54-22-7.43-45.88-23.11-69.13l-2.09-3.13-2.07-3.12h0Z"/>
  <path class="cls-1" d="M742.98,529.01l-4.11,5.45c-15.04,19.82-34.27,84.76-34.98,110.56,0,0,.36,4.75.39,4.86l.99,6.11s4.53-2.86,4.54-2.86c26.82-17.19,40.9-42.01,41.8-73.72.39-14.02-1.82-28.79-6.57-43.89l-1.04-3.29-1.02-3.22h0Z"/>
  <path class="cls-1" d="M798.87,629.58s-7.47,1.24-7.48,1.24c-27.51,4.49-105.3,48.39-117.28,66.17l-3,4.49,5.33.93c64.15,11.21,98.36-32.46,118.55-66.3l1.94-3.26,1.94-3.27h0ZM792.24,632.34h0Z"/>
  <path class="cls-1" d="M489.62,728.84c-2.05.96-48.56,25.05-78.21,63.85l-1.81,2.38,2.01,2.17c2.07,2.22,6.96,6.04,10.18,7.13l2.19.69s1.52-1.73,1.52-1.75c28.43-35.41,77.26-78.76,129.4-84.15,8.26,8.05,15.02,14.15,26.21,17.95,29.58,9.96,80.65,5.02,121.43-11.64l9.65-3.96-10.07-2.71h0c-96.85-26.28-170.7-10.35-212.53,10.04h0Z"/>
  <path class="cls-1" d="M700.52,607.01l-6.21,3.23c-20.77,14.26-80.17,64.96-84.55,82.42l-1.02,4.05,4.1.33c64.86,5.58,80.46-44.79,86.57-83.19l.58-3.4.52-3.43h0Z"/>
</svg>