<?xml version="1.0" encoding="UTF-8"?>
<svg id="Layer_1" data-name="Layer 1" xmlns="http://www.w3.org/2000/svg" viewBox="0 0 1080 1080">
  <defs>
    <style>
      .cls-1 {
        fill: #707070;
      }
    </style>
  </defs>
  <path class="cls-1" d="M534.69,539.67c32.89-67.52,79.2-127.62,136.09-176.63h0s-4.99,3.34-4.99,3.34c-61.95,41.46-114.87,95.03-155.58,157.48l-25.8,39.59,11.1,20.34-28.42-16.63s46-154.09,149.45-230.42l8.67-4.29-11.18,5.09c-125.68,61.66-240.47,320.93-240.47,320.93l3.17,67.17,23.76,17.24,54.11-75.29,71.7,79.99h42.38l-15.77-55.27,47.44,55.27h34.67c-2.95-1.48-6.67-3.23-6.38-3.58l-73.41-86.61,113.12,90.19h38.03l-195.8-158.47,24.07-49.42ZM468.36,586.44h.02s-.06.05-.06.05l.04-.05Z"/>
</svg>