<?xml version="1.0" encoding="UTF-8"?>
<svg id="Layer_1" data-name="Layer 1" xmlns="http://www.w3.org/2000/svg" viewBox="0 0 1080 1080">
  <defs>
    <style>
      .cls-1 {
        fill: #707070;
      }
    </style>
  </defs>
  <path class="cls-1" d="M384.76,619.8c16.69-.83,32.91-6.23,46.4-16.08,48.51-35.45,25.16-97.71,25.16-97.71l-48.21,2.13,2.96,28.05-63.86,2.23,11.82-148.67s-104.88-5.83-158.61,23.96c-8.05,4.46-14.28,12.67-17.43,22.74-9.78,31.38-31.62,107.69-26.27,147.89,5.39,40.52,57.22,45.3,78.94,45.5,4.72.05,8.01-.13,9.1-.19.07,0,.12,0,.17,0l.22-.02,81.62-6.31,57.99-3.52ZM257.53,536.04c0-81.94,70.41-84.03,70.41-84.03l-6.94,87.32-63.47,2.22s-.05-2.47,0-5.52Z"/>
  <path class="cls-1" d="M770.07,356.6l-25.07,167.92-16.55.66c-1.67-62.38-15.88-98.43-39.32-117.83-11.41-9.45-23.97-16.78-38.81-15.33-65.72,6.42-60.64,111.3-60.64,111.3l64.31-3.84c-7.63-32.4-4.45-43.35-1.07-47.02,1.65-1.79,4.41-1.86,6.3-.33,15.36,12.5,14.72,66.34,14.76,74.87l-137.43,4.77-8.56.27-40.11,1.43c13.69,120.43-149.54,115.24-149.54,115.24l-8.34,110.26c106.73,0,177.54-76.53,188.82-139.08l283.14-10.67,35.87-255.62-67.76,3Z"/>
  <polygon class="cls-1" points="857.1 356.75 819.52 608.55 888.69 605.92 924.11 353.71 857.1 356.75"/>
  <path class="cls-1" d="M265.98,378.27c12.26-.42,22.38-8.73,25.66-19.88,4.04,10.9,14.7,18.51,26.96,18.09,15.31-.52,27.3-13.35,26.78-28.66-.52-15.31-13.35-27.3-28.66-26.78-12.26.42-22.38,8.73-25.66,19.88-4.04-10.9-14.7-18.51-26.96-18.09-15.31.52-27.3,13.35-26.78,28.66.52,15.31,13.35,27.3,28.66,26.78Z"/>
  <path class="cls-1" d="M431.95,493.98c15.32,0,27.74-12.42,27.74-27.74s-12.42-27.74-27.74-27.74-27.74,12.42-27.74,27.74,12.42,27.74,27.74,27.74Z"/>
  <path class="cls-1" d="M508.83,519.78c15.32,0,27.74-12.42,27.74-27.74s-12.42-27.74-27.74-27.74-27.74,12.42-27.74,27.74,12.42,27.74,27.74,27.74Z"/>
  <path class="cls-1" d="M651.57,378.92c16.74,1.06,30.54-12.74,29.48-29.48-.87-13.81-12.07-25.01-25.88-25.88-16.74-1.06-30.54,12.74-29.48,29.48.87,13.81,12.07,25.01,25.88,25.88Z"/>
</svg>