<?xml version="1.0" encoding="UTF-8"?>
<svg id="Layer_1" data-name="Layer 1" xmlns="http://www.w3.org/2000/svg" viewBox="0 0 1080 1080">
  <defs>
    <style>
      .cls-1 {
        fill: #707070;
      }
    </style>
  </defs>
  <path class="cls-1" d="M873.51,440.07c-8.61-.08-16.12,1.57-22.87,11.97-15.16,19.65-59.48,140.77-58.71,164.93.28,8.68,5.08,16.28,15.77,16.28,12.26,0,19.08-8.46,25.11-18.7,13.94-23.61,53.17-130.67,54.24-157.45.32-7.79-.98-16.88-13.55-17.04ZM873.51,440.07c-8.61-.08-16.12,1.57-22.87,11.97-15.16,19.65-59.48,140.77-58.71,164.93.28,8.68,5.08,16.28,15.77,16.28,12.26,0,19.08-8.46,25.11-18.7,13.94-23.61,53.17-130.67,54.24-157.45.32-7.79-.98-16.88-13.55-17.04ZM873.51,440.07c-8.61-.08-16.12,1.57-22.87,11.97-15.16,19.65-59.48,140.77-58.71,164.93.28,8.68,5.08,16.28,15.77,16.28,12.26,0,19.08-8.46,25.11-18.7,13.94-23.61,53.17-130.67,54.24-157.45.32-7.79-.98-16.88-13.55-17.04ZM873.51,440.07c-8.61-.08-16.12,1.57-22.87,11.97-15.16,19.65-59.48,140.77-58.71,164.93.28,8.68,5.08,16.28,15.77,16.28,12.26,0,19.08-8.46,25.11-18.7,13.94-23.61,53.17-130.67,54.24-157.45.32-7.79-.98-16.88-13.55-17.04ZM880.12,340.35c-54.15,0-91.57,21.47-116.89,51.46-4.28-8.98-7.52-12.9-12.11-18.08-20.73-23.44-54.07-34.38-98.8-34.38s-80.13,13.65-105.43,35.13c-13.14-21.35-44.45-35.49-82.21-35.49-49.34,0-103.1,6.98-134.99,58.37-.77-18.51-2.43-28.3-12.84-39.31-12.65-13.38-33.1-16.88-53.03-16.88-36.3,0-63.61,15.85-83.28,48.16-28.53,45.56-97.67,195.47-96.11,268.07,1.01,46.91,32.48,80.7,88.78,82.03,44.01,1.05,78.52-10.71,100.47-32.87,19.69,21.42,49.75,33.96,85.71,33.96,40.05,0,80.35-12.03,104.15-38.31,20.05,24.64,51.6,38.97,92.17,38.77,53.05-.24,99.63-25.42,130.05-63.97,16.7,45.46,59.04,63.5,105.28,63.5,101.33,0,145.85-69.7,182.95-179.88,8.34-24.81,19.51-66.25,21.35-101.07,3.06-57.94-21.46-119.23-115.22-119.23ZM205.81,617.38c52.43-9.1,65.62,9.86,63.97,27.41-4.94,52.55-53.15,64.3-95.02,63.32-30.36-.68-57.66-14.63-58.41-49.88-1.34-61.66,61.56-204.33,91.17-251.61,13.66-22.46,30.32-33.55,56.9-33.55,25.18,0,31.43,12.92,31.05,28.41-1,41.31-67.74,166.86-89.65,215.9ZM376.56,568.89v.05c-3.47,9.38-10.03,29.05-15.35,49.91,17.21-4.31,30.12-7.31,52.23-6.78,25.19.61,41.29,11.07,41.29,31.89,0,50.52-55.82,65.34-94.54,65.34-42.51,0-79.85-24.2-79.85-70.69,0-54.51,29.54-137.16,57.27-192.21,34.06-67.62,68.85-76.61,128.76-76.61,26.35,0,56.69,11.27,56.69,36.13,0,34.46-29.21,47.61-58.15,49.27-12.36.68-31.39,1.38-42.77.53,0,0-9.63,14.67-19.88,40.83,53.6-7.55,76.34,4.61,67.29,35.63-12.24,41.9-48.54,44.66-92.99,36.7ZM640.23,438.6c-14.5,0-23.98,9.18-31.04,19.09-15.53,21.83-49.21,109.27-54.44,145.18-3.6,24.61,7.03,29.62,18.64,29.62,18.63,0,39.51-19.71,46.64-52.22,0,0-35.47-.86-25.69-32.3,9.5-30.52,27.51-37.13,57.39-38.36,58.84-2.41,53.03,41.06,48.33,64.23-15.29,75.24-68.86,135.68-144.61,135.68-51.86,0-84.06-28.69-84.06-81.59,0-37.67,18.7-96.83,33.53-131.46,31.53-73.68,64.62-125.25,148.89-125.25,50.56,0,90.45,18.16,84.6,65.54-4.29,34.77-21.69,55.19-53.3,57.66-8.84.69-45.02-.23-33.02-34.44,4.19-11.97,5.91-21.38-11.87-21.38ZM958.52,500.81c-8.9,44.37-28.94,96.84-50.69,135.96-35.49,63.82-78.61,72.75-116.23,72.3-37.65-.45-80.06-14.34-80.39-72.41-.23-41.68,17.75-100.52,33.02-139.09,26.6-69.92,53.79-126.93,139.74-125.9,100.23,1.2,82.36,90.33,74.56,129.13ZM873.51,440.07c-8.61-.08-16.12,1.57-22.87,11.97-15.16,19.65-59.48,140.77-58.71,164.93.28,8.68,5.08,16.28,15.77,16.28,12.26,0,19.08-8.46,25.11-18.7,13.94-23.61,53.17-130.67,54.24-157.45.32-7.79-.98-16.88-13.55-17.04ZM873.51,440.07c-8.61-.08-16.12,1.57-22.87,11.97-15.16,19.65-59.48,140.77-58.71,164.93.28,8.68,5.08,16.28,15.77,16.28,12.26,0,19.08-8.46,25.11-18.7,13.94-23.61,53.17-130.67,54.24-157.45.32-7.79-.98-16.88-13.55-17.04ZM873.51,440.07c-8.61-.08-16.12,1.57-22.87,11.97-15.16,19.65-59.48,140.77-58.71,164.93.28,8.68,5.08,16.28,15.77,16.28,12.26,0,19.08-8.46,25.11-18.7,13.94-23.61,53.17-130.67,54.24-157.45.32-7.79-.98-16.88-13.55-17.04ZM873.51,440.07c-8.61-.08-16.12,1.57-22.87,11.97-15.16,19.65-59.48,140.77-58.71,164.93.28,8.68,5.08,16.28,15.77,16.28,12.26,0,19.08-8.46,25.11-18.7,13.94-23.61,53.17-130.67,54.24-157.45.32-7.79-.98-16.88-13.55-17.04ZM873.51,440.07c-8.61-.08-16.12,1.57-22.87,11.97-15.16,19.65-59.48,140.77-58.71,164.93.28,8.68,5.08,16.28,15.77,16.28,12.26,0,19.08-8.46,25.11-18.7,13.94-23.61,53.17-130.67,54.24-157.45.32-7.79-.98-16.88-13.55-17.04Z"/>
</svg>