<?xml version="1.0" encoding="UTF-8"?>
<svg id="Layer_1" data-name="Layer 1" xmlns="http://www.w3.org/2000/svg" viewBox="0 0 1080 1080">
  <defs>
    <style>
      .cls-1 {
        fill: #707070;
      }
    </style>
  </defs>
  <path class="cls-1" d="M420.85,438.86l11.61,10.86,3.74-6.73-15.36-4.13ZM420.85,438.86l11.61,10.86,3.74-6.73-15.36-4.13ZM420.85,438.86l11.61,10.86,3.74-6.73-15.36-4.13ZM518.98,376.73c-1.7-5.49-7.02-8.19-12.63-6.45-5.61,1.74-8.46,6.98-6.75,12.47,1.7,5.49,7.02,8.19,12.63,6.45,5.61-1.74,8.46-6.98,6.75-12.47ZM558.56,363.19l-1.15-.09-.65,8.58,1.52.12c3.11.23,5.12-1.22,5.32-3.89.2-2.67-1.69-4.47-5.04-4.72ZM558.56,363.19l-1.15-.09-.65,8.58,1.52.12c3.11.23,5.12-1.22,5.32-3.89.2-2.67-1.69-4.47-5.04-4.72ZM420.85,438.86l11.61,10.86,3.74-6.73-15.36-4.13ZM518.98,376.73c-1.7-5.49-7.02-8.19-12.63-6.45-5.61,1.74-8.46,6.98-6.75,12.47,1.7,5.49,7.02,8.19,12.63,6.45,5.61-1.74,8.46-6.98,6.75-12.47ZM420.85,438.86l11.61,10.86,3.74-6.73-15.36-4.13ZM518.98,376.73c-1.7-5.49-7.02-8.19-12.63-6.45-5.61,1.74-8.46,6.98-6.75,12.47,1.7,5.49,7.02,8.19,12.63,6.45,5.61-1.74,8.46-6.98,6.75-12.47ZM558.56,363.19l-1.15-.09-.65,8.58,1.52.12c3.11.23,5.12-1.22,5.32-3.89.2-2.67-1.69-4.47-5.04-4.72ZM558.56,363.19l-1.15-.09-.65,8.58,1.52.12c3.11.23,5.12-1.22,5.32-3.89.2-2.67-1.69-4.47-5.04-4.72ZM420.85,438.86l11.61,10.86,3.74-6.73-15.36-4.13ZM518.98,376.73c-1.7-5.49-7.02-8.19-12.63-6.45-5.61,1.74-8.46,6.98-6.75,12.47,1.7,5.49,7.02,8.19,12.63,6.45,5.61-1.74,8.46-6.98,6.75-12.47ZM733.07,447.71c-6.27-19.78-15.06-38.96-27.74-55.37-24.74-31.93-92.71-81-160.73-71.82-21.46,2.9-41.98,10.48-63.12,15.22-14.11,3.17-28.59,5.08-42.07,10.31-41.92,16.28-65.58,61.22-76.2,104.93-5.76,23.75-8.78,48.17-8.98,72.61-.03,2.87-.02,5.74.05,8.61.02,1.46.06,2.92.1,4.37.02.32.02.63.04.94.03,1.2.07,2.39.14,3.58.01.52.04,1.02.07,1.55.14,2.83.33,5.67.6,8.49.14,1.84.33,3.66.57,5.47.04.36.09.7.13,1.06,1.22,9.52,3.38,18.9,7.37,27.6,4.68,10.17,11.66,19.05,18.59,27.83,20.5,26,41.63,52.57,69.99,69.68,24.4,14.73,51.7,21.19,80.07,23,7.18.47,14.43.63,21.72.55-6.01.03-12-.13-17.92-.51,4.2-22.95,8.35-52.44,7.41-71.61-.23-4.97-3.47-4.48-7.18-4.68-4.35-.23-8.7-.64-13.02-1.2-8.67-1.14-17.26-2.94-25.71-5.4-16.89-4.9-33.19-12.38-48.23-22.19-3.02-1.96-5.97-4.02-8.88-6.17-4.71-3.47-9.35-7.28-12.6-12.36-5.39-8.4-4.37-19.13-.18-27.67,1.57-3.18,3.56-6.17,6.17-8.39.93-.78,1.87-1.4,2.84-1.89,5.95-2.98,12.58-.65,18.69,2.22,16,7.52,31.92,13.44,48.82,17.86,8.99,2.35,17.72,4.93,26.93,6.14,18.22,2.4,36.76,1.4,54.56-2.94,13.37-3.27,26.14-8.46,38.15-15.51,3.11-1.82,6.17-3.72,9.2-5.69,9.71-6.29,17.84-15.09,27.71-21.09,5.71-3.47,12.58-4.94,17.8.4,4.16,4.26,6.34,10.73,7.76,16.56,4.48,18.59-10.58,29.58-21.38,40.42-21.44,21.52-47.93,36.7-77.11,41.5-2.54.42-8.34-.08-10.05,2.35-2.06,2.91.99,13.39,1.44,17.01.79,6.54,1.47,13.1,2.06,19.67,1.11,12.14,2.67,26.6,3.36,41.6.45-.04.91-.07,1.36-.12,17.15-1.5,34.28-3.84,50.99-6.27,18.07-2.62,36.98-5.56,51.67-16.41,10.57-7.79,18.05-19.04,24.42-30.52,34.02-61.36,41.56-136.85,20.33-203.74ZM596.92,360.06l25.4,9.88-3.63,9.34-14.01-5.45-1.79,4.61,11.05,4.3-3.51,9.02-11.05-4.3-1.87,4.83,14.01,5.45-3.63,9.34-25.4-9.88,14.44-37.14ZM503.15,359.95c12.61-3.92,24.41,1.54,27.97,13.01,3.56,11.47-3.08,22.65-15.69,26.57-12.6,3.91-24.41-1.54-27.97-13.01-3.56-11.47,3.08-22.66,15.69-26.57ZM433.78,492.83l-29.08-6.68-2.01,8.76-9.76-2.24,6.75-29.43,9.76,2.24-2.01,8.76,29.07,6.68-2.73,11.92ZM451.48,447.14l-5.66-1.54-6.06,10.9,4.29,3.99-6.53,11.76-28.09-31.49,7-12.61,41.57,7.23-6.53,11.76ZM470.21,424.73l-9.35,7.88-25.67-30.49,9.49-7.99,21.99,7.61-12.87-15.29,9.35-7.87,25.67,30.48-8.98,7.56-21.92-6.47,12.29,14.58ZM518.32,542.12c-17.86,1.96-33.93-10.92-35.9-28.78-1.97-17.86,10.92-33.93,28.77-35.9,17.86-1.97,33.93,10.92,35.9,28.78,1.97,17.86-10.92,33.93-28.77,35.9ZM555.12,393.59l-12.19-.92,2.98-39.74,15.48,1.16c9.57.72,15.3,6.12,14.71,13.9-.37,4.94-3.13,8.33-7.71,9.64,5.51,3.44,8.3,9.59,7.51,17.52l-12.55-.94c.76-6.96-2.11-11.92-7.28-13.33l-.95,12.72ZM592.76,541.86c-17.86,1.97-33.93-10.92-35.9-28.78-1.97-17.86,10.92-33.93,28.78-35.9,17.86-1.96,33.93,10.92,35.89,28.78,1.97,17.86-10.92,33.93-28.77,35.9ZM637,427.18l-21.94-16.17,23.64-32.07,21.94,16.17-5.94,8.07-12.1-8.92-2.94,3.99,9.54,7.04-5.74,7.79-9.54-7.04-3.07,4.17,12.1,8.92-5.94,8.06ZM665.29,461.46l-7.1-9.34,7.56-21.56-15.18,11.53-7.4-9.73,31.72-24.11,7.51,9.88-8.69,21.58,15.9-12.09,7.4,9.73-31.72,24.11ZM563.61,367.91c.2-2.67-1.69-4.47-5.04-4.72l-1.15-.09-.65,8.58,1.52.12c3.11.23,5.12-1.22,5.32-3.89ZM512.23,389.2c5.61-1.74,8.46-6.98,6.75-12.47-1.7-5.49-7.02-8.19-12.63-6.45-5.61,1.74-8.46,6.98-6.75,12.47,1.7,5.49,7.02,8.19,12.63,6.45ZM436.2,442.99l-15.36-4.13,11.61,10.86,3.74-6.73ZM518.98,376.73c-1.7-5.49-7.02-8.19-12.63-6.45-5.61,1.74-8.46,6.98-6.75,12.47,1.7,5.49,7.02,8.19,12.63,6.45,5.61-1.74,8.46-6.98,6.75-12.47ZM420.85,438.86l11.61,10.86,3.74-6.73-15.36-4.13ZM558.56,363.19l-1.15-.09-.65,8.58,1.52.12c3.11.23,5.12-1.22,5.32-3.89.2-2.67-1.69-4.47-5.04-4.72ZM558.56,363.19l-1.15-.09-.65,8.58,1.52.12c3.11.23,5.12-1.22,5.32-3.89.2-2.67-1.69-4.47-5.04-4.72ZM518.98,376.73c-1.7-5.49-7.02-8.19-12.63-6.45-5.61,1.74-8.46,6.98-6.75,12.47,1.7,5.49,7.02,8.19,12.63,6.45,5.61-1.74,8.46-6.98,6.75-12.47ZM420.85,438.86l11.61,10.86,3.74-6.73-15.36-4.13ZM518.98,376.73c-1.7-5.49-7.02-8.19-12.63-6.45-5.61,1.74-8.46,6.98-6.75,12.47,1.7,5.49,7.02,8.19,12.63,6.45,5.61-1.74,8.46-6.98,6.75-12.47ZM420.85,438.86l11.61,10.86,3.74-6.73-15.36-4.13ZM518.98,376.73c-1.7-5.49-7.02-8.19-12.63-6.45-5.61,1.74-8.46,6.98-6.75,12.47,1.7,5.49,7.02,8.19,12.63,6.45,5.61-1.74,8.46-6.98,6.75-12.47ZM420.85,438.86l11.61,10.86,3.74-6.73-15.36-4.13ZM420.85,438.86l11.61,10.86,3.74-6.73-15.36-4.13ZM420.85,438.86l11.61,10.86,3.74-6.73-15.36-4.13Z"/>
  <path class="cls-1" d="M584.3,704.77v.03c-10.24.91-20.49,1.48-30.65,1.52,10.17-.1,20.41-.68,30.65-1.56Z"/>
</svg>