<?xml version="1.0" encoding="UTF-8"?>
<svg id="Layer_1" data-name="Layer 1" xmlns="http://www.w3.org/2000/svg" viewBox="0 0 1080 1080">
  <defs>
    <style>
      .cls-1 {
        fill: #707070;
      }
    </style>
  </defs>
  <path class="cls-1" d="M764.27,660.89c-.09-3.47-.07-7.64-.05-11.79-.79-28.58-12.26-54.48-30.57-73.86-.12-.13-.24-.26-.36-.38-.52-.54-1.03-1.07-1.55-1.6-.07-.07-.14-.14-.22-.21-8.56-8.26-20.19-13.34-33.03-13.34-3.32,0-6.56.34-9.68.99-.07,0-.15.03-.24.05-8.37,1.77-15.92,5.76-22.02,11.31,0,0,0,0-.02.02-.24.21-.48.43-.71.65-.05.02-.08.06-.11.09-.56.55-1.1,1.09-1.62,1.64-.03.03-.06.06-.1.09-8.34,7.91-19.58,12.84-31.95,13.02-.24.02-.49.02-.73.02-.42,0-.82,0-1.22-.02-1.67-.02-3.32-.13-4.95-.33-.34-.04-.68-.09-1.02-.14-15.99-2.29-29.4-12.75-35.96-27.05-.07-.14-.13-.29-.2-.43-.24-.52-.46-1.06-.68-1.6-.22-.55-.43-1.1-.64-1.67-.21-.58-.4-1.16-.6-1.75-.22-.68-.44-1.4-.61-2.1-.21-.71-.37-1.43-.54-2.14-.14-.61-.25-1.24-.37-1.86-.02-.25-.07-.49-.11-.75-.23-1.33-.39-2.68-.49-4.05-.1-1.21-.14-2.42-.14-3.66,0-1.64.09-3.25.25-4.87.02-.38.07-.79.14-1.18.04-.39.09-.79.16-1.18.12-.79.25-1.57.42-2.35.26-1.32.6-2.63.98-3.92.63-2.23,1.44-4.38,2.39-6.46l.02-.04.12-.27s.03-.05.05-.07c7.44-15.84,23.31-26.87,41.77-27.16.4-.02.8-.02,1.22-.02.31,0,.62,0,.92.02,12.3.22,23.46,5.14,31.76,13,.02.02.04.05.06.06.02.02.02.02.04.02l.88.88c.25.25.49.5.74.76,0,0,0,0,0,0,.05.04.09.08.14.12,6.86,6.49,15.64,10.95,25.39,12.44.25.05.51.08.76.1,2.11.3,4.27.45,6.47.45,15.06,0,27.01-6.56,35.7-16.02.07-.06.46-.52.64-.74.02-.02.03-.04.06-.06h0s0-.02.02-.02c17.84-19.51,28.88-45.35,29.36-73.77,0-2.21,0-4.41,0-6.6v-.02c-2.47-59.78-51.72-107.49-112.1-107.49-13.21,0-25.89,2.29-37.66,6.48-26.61,9.48-49.96,28.03-61.62,53.4-9.88,21.51-15.48,33.72-27.65,59.41-2.06,4.36-6.44,7.15-11.26,7.19h0c-9.47.07-15.62-9.96-11.25-18.37,5.76-11.07,10.49-20.49,14.22-28.94,2.74-6.21,4.95-11.89,6.61-17.31,0-.04.02-.09.04-.13,2.6-8.52,3.9-16.39,3.9-24.66v-.12c-.02-16.56-2.91-31.51-7.98-44.69-15.56-37.49-52.01-64.12-94.83-65.34-1.03-.03-2.06-.05-3.1-.05-58.53,0-105.98,47.45-105.98,105.98,0,1.02.02,2.05.04,3.06-.02,1.05-.04,2.1-.04,3.15,0,80.04,0,369.7,0,371.8.55,49.95,33.73,92.05,79.23,106.01,10.42,3.2,21.49,4.92,32.96,4.92,29.82,0,56.93-11.64,77.02-30.62.14-.12.26-.24.38-.36.54-.52,1.07-1.03,1.6-1.55.07-.07.14-.14.21-.22,8.26-8.56,13.34-20.19,13.34-33.03,0-3.32-.34-6.56-.99-9.68,0-.07-.03-.15-.05-.24-1.77-8.37-5.76-15.92-11.31-22.02,0,0,0,0-.02-.02-.21-.24-.43-.48-.65-.71-.02-.05-.06-.08-.09-.11-.55-.56-1.09-1.1-1.64-1.62-.03-.03-.06-.06-.09-.1-7.91-8.34-12.84-19.58-13.02-31.95-.02-.24-.02-.49-.02-.73,0-.42,0-.82.02-1.22.02-1.67.14-3.32.33-4.95.04-.34.09-.68.14-1.02,2.29-15.99,12.75-29.4,27.05-35.96.14-.07.29-.13.43-.2.52-.24,1.06-.46,1.6-.68.55-.22,1.1-.43,1.67-.64.58-.21,1.16-.4,1.75-.6.68-.22,1.4-.44,2.1-.61.71-.21,1.43-.37,2.14-.54.61-.13,1.24-.25,1.86-.37.25-.02.49-.07.75-.11,1.33-.23,2.68-.39,4.05-.49,1.21-.1,2.42-.13,3.66-.13,1.64,0,3.25.09,4.87.25.38.02.79.07,1.18.13.39.04.79.09,1.18.16.79.12,1.57.25,2.35.42,1.32.26,2.63.6,3.92.98,2.23.63,4.38,1.44,6.46,2.39l.31.14s.05.03.07.05c15.84,7.44,26.87,23.31,27.16,41.77.02.4.02.8.02,1.22,0,.31,0,.62-.02.92-.22,12.3-5.14,23.46-13,31.76-.02.02-.05.04-.06.06-.02.02-.02.02-.02.04l-.88.88c-.25.25-.5.49-.76.74,0,0,0,0,0,0-.04.05-.08.09-.12.14-6.49,6.86-10.95,15.64-12.44,25.39-.05.25-.08.51-.1.76-.3,2.11-.45,4.27-.45,6.47,0,15.06,6.56,27.01,16.02,35.7.06.07.52.46.74.64.02.02.04.03.06.06h0s.02,0,.02.02c19.95,18.24,46.51,29.37,75.67,29.37.83,0,1.65,0,2.48-.03,60.82-1.31,109.72-51.02,109.72-112.16,0-21.84-.12-44.11-.12-64.38Z"/>
</svg>