<?xml version="1.0" encoding="UTF-8"?>
<svg id="Layer_1" data-name="Layer 1" xmlns="http://www.w3.org/2000/svg" viewBox="0 0 1080 1080">
  <defs>
    <style>
      .cls-1 {
        fill: #707070;
      }
    </style>
  </defs>
  <path class="cls-1" d="M788.29,453.13l-167.66-149.28c-20.04-17.84-45.85-27.39-72.65-26.9-26.8-.49-52.61,9.06-72.65,26.9l-167.66,149.28c-22.64,20.16-35.63,49.11-35.63,79.43v164.16c0,26.51,9.82,51.92,27.66,71.54,20.11,22.12,48.79,34.81,78.69,34.81h26.76c15.1,0,29.66-4.6,42.51-8.66,1.57-.5,3.13-.99,4.68-1.47l.51-.16,95.13-34.65,94.63,34.46.06.02c19.78,7.13,35.33,10.46,48.95,10.46h25.95c29.9,0,58.58-12.69,78.69-34.81,17.83-19.62,27.66-45.02,27.66-71.54v-164.16c0-30.32-12.99-59.27-35.63-79.43ZM779.33,696.72c0,16.89-6.87,33.01-19.21,44.77-11.61,11.06-27.19,16.99-43.22,16.99h-25.28c-8.18,0-19.23-2.55-33.79-7.8l-44.71-16.28,44.44-16.19,1.21-.61c17.5-8.9,32.18-22.45,42.44-39.19,10.27-16.74,15.69-35.96,15.69-55.6v-68.87h-44.59v68.87c0,22.95-12.48,43.7-32.65,54.47l-36.29,13.22c-15.04,5.48-30.94-5.66-30.94-21.66v-113.22h-44.59v114.8c0,16-15.91,27.14-30.94,21.66l-40.62-14.79c-20.17-10.77-32.65-31.52-32.65-54.47v-68.87h-44.59v68.87c0,19.64,5.43,38.86,15.69,55.6,10.27,16.74,24.94,30.29,42.44,39.19l1.21.61,44.44,16.19-44.24,16.11c-1.45.45-2.91.91-4.38,1.38-10.25,3.24-20.85,6.59-29.06,6.59h-26.76c-17.36,0-34.02-7.37-45.7-20.22-10.36-11.39-16.06-26.15-16.06-41.54v-164.16c0-17.61,7.54-34.42,20.69-46.13l167.66-149.28c11.69-10.41,26.78-15.97,42.41-15.62h.24s.94,0,.94,0c15.66-.33,30.72,5.21,42.41,15.62l167.66,149.28c13.15,11.71,20.69,28.52,20.69,46.13v164.16Z"/>
</svg>