<?xml version="1.0" encoding="UTF-8"?>
<svg id="Layer_1" data-name="Layer 1" xmlns="http://www.w3.org/2000/svg" viewBox="0 0 1080 1080">
  <defs>
    <style>
      .cls-1 {
        fill: #707070;
      }
    </style>
  </defs>
  <path class="cls-1" d="M168.23,530.81c0-19.41-13.29-32.7-32.19-36.72-21.32-4.54-43.11,6.45-53.68,25.22-9.21,16.35-8.91,31.47-9.68,49.53-.1,2.42,1.02,30.53.95,30.53h-34.81v-134.49h33.02l.07,26.86c16.42-22.37,36.97-28.42,59.04-28.42,31.78,0,70.92,15.74,70.92,59.87v76.18h-33.62v-68.56Z"/>
  <path class="cls-1" d="M509.63,464.67c23.52,0,45.81,3.22,63.14,11.89v26.99c-22.53-9.9-51.26-10.65-63.14-10.65s-42.34,0-42.34,11.14c0,18.82,115.14-.99,115.14,53.48,0,32.19-34.66,41.85-71.56,41.85-19.56,0-47.79-3.47-72.3-13.87v-29.22c25.26,7.92,49.03,14.86,75.52,14.86,16.09,0,36.65-1.49,36.65-11.14,0-22.53-115.14-3.71-115.14-53.73,0-33.68,47.29-41.6,74.04-41.6Z"/>
  <path class="cls-1" d="M419.15,598.9c-10.31,0-23.69.39-32.93.39,6.01-64.56-22.68-112.17-92.05-104.27-53.47,6.09-58.46,67.36-2.44,73.76,28.01,3.2,43.67-4.56,68.08-18.74l12.38,25.38c-43.23,37.88-147.48,34.05-153.58-34.97-7.56-85.64,121.61-98.73,167.6-45.41v-29.42s32.95.01,32.95.01v133.27Z"/>
  <path class="cls-1" d="M780.34,525.94l-106.04,24.32-6.76-26.49,67.15-13.82c-22.16-30.89-130.96-10.82-103.65,37.58,16.39,29.04,74.33,24.14,101.53,15.64,6.62-2.07,11.85-3.5,29.18-11.53l12.26,25.85c-44.28,33.41-173.12,33.87-179.63-36.48-8.59-92.84,173.72-104.74,185.96-15.07Z"/>
  <path class="cls-1" d="M978.26,525.94l-106.04,24.32-6.76-26.49,67.15-13.82c-22.16-30.89-130.96-10.82-103.65,37.58,16.39,29.04,74.33,24.14,101.53,15.64,6.62-2.07,11.85-3.5,29.18-11.53l12.26,25.85c-44.28,33.41-173.12,33.87-179.63-36.48-8.59-92.84,173.72-104.74,185.96-15.07Z"/>
  <path class="cls-1" d="M959.72,626.11c50.48-23.06,50.67-68.46,43.07-148.03-.42-4.36-1.11-8.92-1.54-13.34l35.38-.08c.4,4.39,8.25,73.31,2.4,104.08-6.99,36.8-24.23,70.14-57.98,85.55-23.98,10.96-46.41,15.09-63.38,16.39-18.17,1.39-30.1-.44-31.04-.6l.51-31.07c1.98.26,34.79,4.37,72.57-12.89Z"/>
  <path class="cls-1" d="M1008.71,410c9.24-2.6,19.94-1.2,26.53,6.38,5.84,6.72,6.66,17.6,1.19,24.62-2.68,3.43-6.56,5.78-10.68,7.2-7.59,2.62-16.46,2.07-23.08-2.47-13.77-9.46-9.95-31.24,6.04-35.73Z"/>
</svg>