<?xml version="1.0" encoding="UTF-8"?>
<svg id="Layer_1" data-name="Layer 1" xmlns="http://www.w3.org/2000/svg" viewBox="0 0 1080 1080">
  <defs>
    <style>
      .cls-1 {
        fill: #707070;
      }
    </style>
  </defs>
  <polygon class="cls-1" points="381.56 608.97 381.55 608.98 381.55 608.97 381.56 608.97"/>
  <path class="cls-1" d="M695.2,593.31c-6.82,0-12.6,5.82-12.6,12.7v20.5h12.6c6.89,0,12.71-5.82,12.71-12.71v-7.79c0-6.88-5.82-12.7-12.71-12.7ZM695.2,593.31c-6.82,0-12.6,5.82-12.6,12.7v20.5h12.6c6.89,0,12.71-5.82,12.71-12.71v-7.79c0-6.88-5.82-12.7-12.71-12.7ZM695.2,593.31c-6.82,0-12.6,5.82-12.6,12.7v20.5h12.6c6.89,0,12.71-5.82,12.71-12.71v-7.79c0-6.88-5.82-12.7-12.71-12.7ZM695.2,593.31c-6.82,0-12.6,5.82-12.6,12.7v20.5h12.6c6.89,0,12.71-5.82,12.71-12.71v-7.79c0-6.88-5.82-12.7-12.71-12.7ZM470.14,718.17c-6.89,0-12.7,5.82-12.7,12.71v7.78c0,6.89,5.81,12.71,12.7,12.71s12.7-5.7,12.7-12.71v-7.78c0-7.01-5.7-12.71-12.7-12.71ZM695.2,593.31c-6.82,0-12.6,5.82-12.6,12.7v20.5h12.6c6.89,0,12.71-5.82,12.71-12.71v-7.79c0-6.88-5.82-12.7-12.71-12.7ZM695.2,593.31c-6.82,0-12.6,5.82-12.6,12.7v20.5h12.6c6.89,0,12.71-5.82,12.71-12.71v-7.79c0-6.88-5.82-12.7-12.71-12.7ZM470.14,718.17c-6.89,0-12.7,5.82-12.7,12.71v7.78c0,6.89,5.81,12.71,12.7,12.71s12.7-5.7,12.7-12.71v-7.78c0-7.01-5.7-12.71-12.7-12.71ZM300.44,241.22v597.56h479.12V241.22h-479.12ZM583.36,567.19c0-1.84,1.25-3.08,3.09-3.08h4.99c1.84,0,3.08,1.24,3.08,3.08v6.13c0,1.81-1.21,2.98-3.08,2.98h-4.99c-1.87,0-3.09-1.17-3.09-2.98v-6.13ZM544.4,567.19v6.13c0,1.81-1.21,2.98-3.08,2.98h-5.19c-1.84,0-2.99-1.14-2.99-2.98v-6.13c0-1.87,1.18-3.08,2.99-3.08h5.19c1.84,0,3.08,1.24,3.08,3.08ZM525.59,552.57c0-1.84,1.14-2.98,2.98-2.98h5.09c1.84,0,2.98,1.14,2.98,2.98v6.13c0,1.84-1.14,2.98-2.98,2.98h-5.09c-1.84,0-2.98-1.14-2.98-2.98v-6.13ZM517.81,567.19c0-1.87,1.17-3.08,2.98-3.08h5.09c1.84,0,3.09,1.24,3.09,3.08v6.13c0,1.81-1.21,2.98-3.09,2.98h-5.09c-1.84,0-2.98-1.14-2.98-2.98v-6.13ZM436.75,759.13c0,1.84-1.24,3.08-3.08,3.08h-4.78c-1.85,0-3.09-1.24-3.09-3.08v-53.6c0-5.86-4.76-10.63-10.62-10.63-2.67,0-4.93.41-6.71,1.21-2.77,1.35-4.02,3.43-4.02,6.72v56.3c0,1.84-1.24,3.08-3.09,3.08h-4.77c-1.85,0-3.09-1.24-3.09-3.08v-56.3c0-3.22-1.33-5.36-4.17-6.74-1.76-.79-3.92-1.19-6.56-1.19-5.92,0-10.73,4.77-10.73,10.63v53.6c0,1.87-1.17,3.08-2.98,3.08h-4.88c-1.81,0-2.99-1.21-2.99-3.08v-53.6c0-5.96,2.12-11.1,6.3-15.28,4.07-4.17,9.22-6.3,15.28-6.3,6.82,0,12.22,1.95,16.11,5.79,3.98-3.84,9.45-5.79,16.3-5.79,5.97,0,10.93,2.06,15.18,6.3,4.24,4.37,6.39,9.5,6.39,15.28v53.6ZM385.76,665.32v-6.13c0-1.87,1.17-3.08,2.99-3.08h5.19c1.81,0,2.97,1.21,2.97,3.08v6.13c0,1.84-1.14,2.98-2.97,2.98h-5.19c-1.85,0-2.99-1.14-2.99-2.98ZM399.57,665.32v-6.13c0-1.84,1.25-3.08,3.09-3.08h5.09c1.81,0,2.98,1.21,2.98,3.08v6.13c0,1.84-1.14,2.98-2.98,2.98h-5.09c-1.87,0-3.09-1.17-3.09-2.98ZM493.68,759.23c0,1.78-1.2,2.98-2.98,2.98h-4.88c-1.78,0-2.98-1.2-2.98-2.98v-.76c-3.77,2.49-8.03,3.74-12.7,3.74-6.52,0-12.14-2.32-16.74-6.92-4.52-4.51-6.81-10.11-6.81-16.63v-7.78c0-6.59,2.29-12.22,6.81-16.74,4.6-4.59,10.22-6.92,16.74-6.92,6.15,0,11.63,2.25,16.29,6.68,4.54,4.33,6.91,9.52,7.25,15.86v29.47ZM547.85,752.54l-1.37,2.01c-3.24,4.8-8.64,7.66-14.43,7.66-4.86,0-9.03-1.69-12.37-5.04-3.35-3.35-5.05-7.51-5.05-12.37v-26.63h-8.13c-1.84,0-2.98-1.14-2.98-2.98v-4.88c0-1.84,1.14-2.98,2.98-2.98h8.13v-20.39c0-1.88,1.18-3.09,2.99-3.09h4.77c1.84,0,3.09,1.24,3.09,3.09v20.39h17.79c1.84,0,2.98,1.14,2.98,2.98v4.88c0,1.84-1.14,2.98-2.98,2.98h-17.79v26.63c0,3.62,2.95,6.57,6.57,6.57,2.94,0,4.78-2.08,5.44-2.97l1.32-1.94c.67-.89,1.46-1.32,2.38-1.32.3,0,1.01,0,1.73.47h.01s4.05,2.71,4.05,2.71c.89.66,1.35,1.55,1.35,2.5,0,.4,0,1-.48,1.72ZM579.73,751.37c6.12,0,10.02-4,11.49-7.43l.43-.99h.33c.4-.43.98-.82,1.88-.82.27,0,.69,0,1.24.18l4.61,2.03c1.71.55,1.91,1.96,1.91,2.53,0,.3,0,1-.47,1.72l-.54.83c-4.02,7.81-12.08,12.79-20.88,12.79-6.44,0-12.03-2.32-16.63-6.92-4.59-4.59-6.91-10.18-6.91-16.63v-7.78c0-6.42,2.39-12.21,6.91-16.74,4.6-4.59,10.19-6.92,16.63-6.92,9.23,0,17.64,5.48,21.44,13.95.28.73.45,1.15.45,1.6,0,1.58-1.24,2.2-1.84,2.5l-4.51,2.1c-.51.25-1.09.25-1.41.25-1.31,0-2.32-.83-2.71-2.23-1.41-3.22-5.31-7.22-11.42-7.22-6.88,0-12.69,5.82-12.69,12.71v7.78c0,6.89,5.81,12.71,12.69,12.71ZM603.65,622.53c0,9-5.81,14.82-14.82,14.82h-18.81c-4.39,0-8-1.22-11.04-3.71-2.46,2.38-6.21,3.71-10.57,3.71h-5.19c-4.7,0-8.54-1.15-11.43-3.42-2.63,2.31-5.93,3.42-10.08,3.42h-5.19c-4.83,0-8.82-1.17-11.63-3.38-2.57,2.24-5.91,3.38-9.98,3.38h-46.44c-2.97,0-5.48-2.5-5.48-5.47v-30.54c0-4.43-3.6-8.03-8.03-8.03s-8.03,3.6-8.03,8.03v42.79c0,2.97-2.45,5.37-5.47,5.37h-36.46c-6.4,0-12.06-2.35-16.82-7-4.67-4.67-7.04-10.41-7.04-17.06,0-11.18,7.2-18.85,13.36-22.02l2.16-1.14c.59-.29,1.09-.29,1.38-.29,1.18,0,2.19.61,2.7,1.62l2.35,4.79c.09.25.22.6.22,1.04,0,1.1-.5,1.93-1.53,2.54l-2.25,1.19c-3.49,1.78-7.54,6.06-7.54,12.27,0,7.16,6.05,13.22,13.22,13.22h30.88v-37.32c0-5.31,1.84-9.8,5.48-13.33,3.56-3.67,8.08-5.55,13.39-5.55s9.56,1.83,13.31,5.57c3.69,3.58,5.57,8.06,5.57,13.31v25.17h41.28c2.79,0,3.77-1.07,3.77-4.09v-34.9c0-1.87,1.18-3.08,2.98-3.08h4.89c1.85,0,3.08,1.24,3.08,3.08v36.36c0,.96.18,1.27.35,1.44.28.28,1.46,1.19,4.98,1.19h6.65c2.82,0,3.87-1.11,3.87-4.09v-32.2c0-1.84,1.14-2.98,2.98-2.98h4.88c1.84,0,2.98,1.14,2.98,2.98v33.66c0,.96.18,1.26.36,1.44.45.41,1.8,1.19,5.08,1.19h6.54c2.91,0,3.98-1.11,3.98-4.09v-34.9c0-1.87,1.17-3.08,2.98-3.08h4.88c1.81,0,2.98,1.21,2.98,3.08v34.9c0,3.79,4.09,4.09,5.34,4.09h20.26c2.88-.08,3.88-1.12,3.88-3.98v-35.01c0-1.81,1.22-3.08,2.98-3.08h4.88c1.76,0,2.98,1.27,2.98,3.08v35.01ZM609.81,573.32c0,1.84-1.14,2.98-2.98,2.98h-5.09c-1.88,0-3.09-1.17-3.09-2.98v-6.13c0-1.84,1.24-3.08,3.09-3.08h5.09c1.81,0,2.98,1.21,2.98,3.08v6.13ZM660,759.23c0,1.81-1.21,2.98-3.08,2.98h-4.88c-1.84,0-2.98-1.14-2.98-2.98v-28.35c0-7.01-5.7-12.71-12.7-12.71s-12.6,5.7-12.6,12.71v28.35c0,1.81-1.21,2.98-3.09,2.98h-4.88c-1.84,0-2.98-1.14-2.98-2.98v-72.29c0-1.88,1.17-3.09,2.98-3.09h4.88c1.84,0,3.09,1.24,3.09,3.09v24.01c3.76-2.5,7.91-3.73,12.6-3.73,6.44,0,12.04,2.33,16.62,6.92,4.65,4.54,7.02,10.18,7.02,16.74v28.35ZM716.93,756.33c-.11,6.58-2.37,11.98-6.92,16.52-4.52,4.52-10.11,6.82-16.62,6.82s-12.03-2.33-16.63-6.92l-1.67-1.66c-.67-.67-.99-1.35-.99-2.09s.37-1.57.99-2.19l3.31-3.41c.62-.62,1.34-.91,2.21-.91,1.26,0,1.94.61,2.29,1.13l1.53,1.39c2.51,2.5,5.43,3.71,8.96,3.71,7,0,12.7-5.65,12.7-12.6v-1.91c-3.78,2.49-8.03,3.75-12.7,3.75-6.44,0-12.03-2.33-16.63-6.92-4.6-4.59-6.92-10.19-6.92-16.63v-24.2c0-1.88,1.17-3.09,2.98-3.09h4.88c1.76,0,2.98,1.27,2.98,3.09v24.2c0,6.88,5.82,12.7,12.71,12.7s12.7-5.82,12.7-12.7v-24.2c0-1.88,1.17-3.09,2.98-3.09h4.88c1.81,0,2.98,1.21,2.98,3.09v46.12ZM718.86,613.8c0,6.45-2.33,12.05-6.92,16.63-4.59,4.59-10.22,6.92-16.74,6.92h-61.28c-9.01,0-14.83-5.82-14.83-14.82v-60.35c0-1.88,1.17-3.09,2.98-3.09h4.88c1.81,0,2.98,1.21,2.98,3.09v60.35c0,2.97.95,3.98,3.78,3.98h37.95v-20.5c0-6.44,2.32-12.04,6.92-16.63,4.59-4.59,10.18-6.92,16.62-6.92s12.14,2.33,16.74,6.92c4.59,4.59,6.92,10.19,6.92,16.63v7.79ZM695.2,593.31c-6.82,0-12.6,5.82-12.6,12.7v20.5h12.6c6.89,0,12.71-5.82,12.71-12.71v-7.79c0-6.88-5.82-12.7-12.71-12.7ZM470.14,718.17c-6.89,0-12.7,5.82-12.7,12.71v7.78c0,6.89,5.81,12.71,12.7,12.71s12.7-5.7,12.7-12.71v-7.78c0-7.01-5.7-12.71-12.7-12.71ZM695.2,593.31c-6.82,0-12.6,5.82-12.6,12.7v20.5h12.6c6.89,0,12.71-5.82,12.71-12.71v-7.79c0-6.88-5.82-12.7-12.71-12.7ZM695.2,593.31c-6.82,0-12.6,5.82-12.6,12.7v20.5h12.6c6.89,0,12.71-5.82,12.71-12.71v-7.79c0-6.88-5.82-12.7-12.71-12.7ZM695.2,593.31c-6.82,0-12.6,5.82-12.6,12.7v20.5h12.6c6.89,0,12.71-5.82,12.71-12.71v-7.79c0-6.88-5.82-12.7-12.71-12.7ZM695.2,593.31c-6.82,0-12.6,5.82-12.6,12.7v20.5h12.6c6.89,0,12.71-5.82,12.71-12.71v-7.79c0-6.88-5.82-12.7-12.71-12.7ZM695.2,593.31c-6.82,0-12.6,5.82-12.6,12.7v20.5h12.6c6.89,0,12.71-5.82,12.71-12.71v-7.79c0-6.88-5.82-12.7-12.71-12.7ZM695.2,593.31c-6.82,0-12.6,5.82-12.6,12.7v20.5h12.6c6.89,0,12.71-5.82,12.71-12.71v-7.79c0-6.88-5.82-12.7-12.71-12.7Z"/>
</svg>