<?xml version="1.0" encoding="UTF-8"?>
<svg id="Layer_1" data-name="Layer 1" xmlns="http://www.w3.org/2000/svg" viewBox="0 0 1000 1000">
  <defs>
    <style>
      .cls-1 {
        fill: #707070;
      }
    </style>
  </defs>
  <path class="cls-1" d="M813.54,619.63c-30.07,22.54-66.39,30.3-94.2,58.04-2.99,1.97-5.97,4.92-9.38,5.04,10.42-9.05,19.84-20.23,26.43-31.75,17.12-29,10.65-67.78,25.55-97.67-9.1,9.96-15.54,20.96-23.35,31.46-24.49,37.07-22.4,85.78-59.11,117.26,21.68-7.39,45.49-9.31,67.81-15.29,43.13-13.71,88.92-56.86,94.61-102.88-5.3,13.6-16.33,26.18-28.38,35.78Z"/>
  <path class="cls-1" d="M834.43,462.54c-8.07,18.28-10.68,38.88-15.87,58.47l-1.58,1.77-.6-.63c1.81-8.51,4.81-16.74,4.01-26.42,2.21-39.94-32.77-64.42-40.68-100.03l-.41,13.33c2.98,34.87,12.22,67.13,22.73,98.9,6.07,14.75,4.22,33.9,2.82,49.48,12.57-19.67,29.02-37.69,42.62-57.05,19.06-34.96,24.34-84.99,6.9-122.44,5.83,31.76-8.48,58.31-19.94,84.61Z"/>
  <path class="cls-1" d="M823.27,420.81c0,.53-.52.91-1.04.91-2.48-8.04-2.25-17.38-6.24-24.86-9.74-29.56-45.49-43.42-59.99-70.25,2.04,11.68,5.7,22.8,10.01,33.56,13.57,32.9,46.58,57.78,55.7,92.68,1.04,3.21,1.31,7.09,2.48,9.98,2.45-16.72,6.84-32.82,13.07-47.93,16.71-35.65,11.68-85.19-11.26-116.27-4.04-5.04-6.65-11.54-12.45-14.92,9.05,12.61,10.64,28.41,10.88,44.7-4.13,30.08-5.44,61.95-1.15,92.4Z"/>
  <path class="cls-1" d="M779.29,265.57c7.71,25.16,11.41,51.7,22.46,75.29l-.68.65c-4.15-6.59-6.24-14.64-12.67-20.44-19.21-25.2-52.68-31.79-65.08-61.69,3.14,17.86,8.59,34.73,21.14,48.56,21.65,23.32,53.1,37.07,67.92,66.21l.21-.24c-5.53-27.5,3.27-54.03-2.76-81.27-5.25-24.09-27.11-50.42-52.33-55.57,10.28,6.87,17.94,17.58,21.8,28.48Z"/>
  <path class="cls-1" d="M778.66,299.26l-3.14-7.24c-5.55-22.81-14.14-44.82-33.13-61.82-16.17-14.52-36.55-19.31-55.45-27.32l21.5,21.75c17.61,28.15,42.65,54.81,70.22,74.64Z"/>
  <path class="cls-1" d="M217.28,303.55c14.37-13.49,30.58-23.84,43.25-39.53,14.14-19.7,27.36-40.83,46.41-57.54-25.95,10.1-54.97,19.71-70.63,47.02-11,14.77-11.28,33.98-19.04,50.05Z"/>
  <path class="cls-1" d="M185.88,378.6c6.27-12.85,17.26-24.24,28.65-34.23,27.62-19.45,56.49-46.66,56.9-81.26-8.94,24.9-35.92,35.4-54.15,52.23-9.37,9.19-16.88,19.83-21.15,31.09l-.65-.52c2.25-9.96,6.75-18.91,9.35-28.63,8.14-26.28,6.47-57.89,32.15-75.53-13.22,3.38-24.98,11.39-34.24,22.91-21.36,22.4-19.18,56.88-16.17,87.09.62,9.35-1.28,18.12-.67,26.85Z"/>
  <path class="cls-1" d="M175.26,467.73c5.6-37.07,36.28-63.64,52.88-96.02,5.81-12.95,10.2-27.08,11.94-41.08-2.34,5.97-6.37,11.13-10.92,16.21-21.33,19.44-45.76,39.39-50.4,67.52-.78,4-1.03,8.15-2.2,12.04-.91.4-.91-.65-1.3-.9l2.6-34.87c.9-34.06-15.41-71.78,4.3-101.73-.67-.13-1.04.39-1.56.65-17.91,22.81-30.61,47.8-29.84,78.41-2.41,37.68,21.78,64.24,24.5,99.77Z"/>
  <path class="cls-1" d="M193.04,560.14l1.93,1.54c-2.06-14.15-3.11-29.4.9-42.91,6.09-21.62,13.09-42.75,17.78-65.03,2.45-17.51,6.71-36.93,4.66-53.8-2.33,9.09-5.04,17.89-9.72,25.8-19.28,29.18-38.48,63.81-25.18,101.07-.31.39-.74.91-1.24.65-5.34-12.31-6.26-26.4-9.99-39.52-8.93-35.08-36.15-64.24-28.25-104.71-4.17,8.79-5.85,18.69-8.06,28.27-4.66,24.74-.11,51.05,6.73,73.76,8.31,28.48,36.31,48.82,50.45,74.89Z"/>
  <path class="cls-1" d="M249.41,646.3c-3.64-9.18-9.2-17.75-11.95-27.35-10.51-43.9-4.8-94.46-23.59-134.98,3.51,23.05-5.68,43.38-7.75,65.29-1.8,18,.93,35.75,8.41,50.65,1.57,4.68,5.83,8.53,6.89,13.1-6.76-6.08-11.15-14.12-16.21-21.39-21.38-35.51-67.51-58.18-70.63-101.08-1.56,19.08-.76,39.65,6.46,56.26,17.13,48.19,69.77,73.2,108.37,99.5Z"/>
  <path class="cls-1" d="M321.45,704.15c-29.93-24.12-34.87-60.15-47.8-92.06-8.69-19.54-21.79-37.45-36.19-54.68,15.85,31.64,8.41,72.84,29.56,102.25,5.81,9.72,15.41,18.27,23.71,25.77l-.39.39c-7.51-3.5-14.48-8.51-21.13-14.41-36.14-29.65-90.05-33.68-111.58-82.38,5.84,35.75,33.69,68.29,64.9,87.47,28.58,19.94,66.53,16.96,98.91,27.63Z"/>
  <path class="cls-1" d="M398.71,723.44c5.42-1.42,12.04-.91,17.09-2.76-21.02-4.27-40.97-10.97-57.54-25.49-23.06-21.69-44.07-44.07-69.06-60.67,19.56,26.31,24.85,65.32,60.88,77.98,5.98,3.15,13.59,2.78,19.07,6.24-6.88,1.06-12.83-1.55-19.32-2.43-45.97-10.27-102.36,2.82-136.88-36.43,13.1,25.65,39.96,46.23,65.99,54.43,40.04,13.59,82-1.59,119.76-10.88Z"/>
  <path class="cls-1" d="M639.71,748.32l-30.17-12.09c-29.27-15.54-67.77-21.61-101.77-12.78-6.74,6.05-13.68-1.06-20.82-1.18-45.75-9.98-85.18,10.89-123.12,27.35-28.28,11.13-65.31,9.33-90.18-7.8,12.3,15.43,28.77,24.92,45.76,31.36,31.6,12.59,69.2,4.02,95.34-14.23,22.44-12.59,41.73-37.36,71.29-27.99-30.08,13.98-57.58,33.56-82.43,58.7l15.57,12.86c18.13-24.28,42.23-44.1,66.61-59.52,5.29-2.84,10.87-6.37,16.73-7.13,29.95,14.63,56.7,39.68,80.85,65.7,5.15-4.16,10.62-8.67,14.85-13.49-25.06-24.21-52.47-43.14-81.98-56.87,4.9-1.42,10.47-1.7,16.24-1.59,15.91-1,26.75,10.26,39.05,18.08,30.37,23.03,70.96,38.21,109.85,23.7,17.43-6.24,34.32-17.26,46.67-32.65-24.04,17.09-60.29,19.95-88.33,9.58Z"/>
  <path class="cls-1" d="M665.77,711.87c-11.51,1.17-22.15,5.33-33.77,5.08,8.15-3.91,18.11-4.83,26.01-9.99,31.9-15.92,33.95-51.17,53.26-75.93-26.04,17.76-46.91,40.97-70.36,63.51-15.92,14.38-35.34,20.33-55.35,24.87v.25l8.06,1.02c41.84,6.76,85.76,27,129.43,10.51,25.41-8.93,53.31-30.2,64.46-55.59-30.01,36.44-78.95,29.55-121.74,36.27Z"/>
  <path class="cls-1" d="M779.7,494.8c-15.64,46.42-3.23,104.37-28.61,146.55v1.58c16.57-12.83,34.05-23.3,51.29-34.58,41.83-28.53,70.11-72.7,62.45-123.09-2.96,30.19-25.9,52.49-48.45,74.24-14.53,15.56-24.24,32.93-36.68,49.26h-1.56c9.2-14,14.93-29.54,15.81-47.07.88-29.02-11.68-53.51-8.42-82.43l-5.83,15.55Z"/>
  <path class="cls-1" d="M293.83,301.16l21.64,15.73c-4.66,6.41-9.03,13.07-13.03,20-4,6.93-7.59,14.04-10.8,21.28l-24.44-10.88c-4.82,10.85-8.88,22-12.16,33.42l25.74,7.38c-4.38,15.36-7.13,31.1-8.24,46.95l-26.77-1.87c-.83,11.85-.83,23.72,0,35.55l26.74-1.87c1.09,15.83,3.84,31.58,8.24,46.98l-25.72,7.37c3.27,11.4,7.33,22.55,12.16,33.4l24.41-10.87s0,0,0,0l16.85-7.5,4.19-1.86s0,0,0,0l10.41-4.64c-25.13-56.45-21.69-122.1,9.2-175.62,30.9-53.51,86.03-89.32,147.49-95.78l-1.19-11.33s0,0,0,0l-5.2-49.5c-11.81,1.24-23.5,3.31-35.02,6.18l6.47,25.96c-15.53,3.89-30.53,9.38-44.78,16.35l-11.75-24.09c-10.66,5.2-20.95,11.14-30.78,17.79l15,22.23c-13.18,8.89-25.44,19.14-36.55,30.62l-19.27-18.61c-8.23,8.52-15.87,17.63-22.85,27.24Z"/>
  <path class="cls-1" d="M664.06,609.38l19.25,18.59c8.25-8.54,15.87-17.65,22.85-27.24l-21.61-15.71h0s-27.86-20.24-27.86-20.24c-36.32,49.99-94.9,79.84-156.69,79.84s-120.37-29.85-156.69-79.84l-27.86,20.24s0,0,0,0l-21.62,15.71c6.97,9.59,14.62,18.7,22.85,27.24l19.26-18.59c11.13,11.51,23.4,21.75,36.55,30.61l-14.99,22.23c9.83,6.63,20.13,12.57,30.78,17.77l11.76-24.11c14.29,6.97,29.3,12.46,44.79,16.35l-6.49,26c11.52,2.86,23.21,4.92,35.02,6.16l2.8-26.61c7.88.83,15.83,1.28,23.83,1.28s15.96-.45,23.84-1.29l2.8,26.61c11.79-1.24,23.5-3.31,35.02-6.16l-6.49-26c15.49-3.88,30.49-9.37,44.78-16.34l11.76,24.11c10.67-5.2,20.95-11.14,30.8-17.77l-15-22.23c13.16-8.86,25.42-19.11,36.55-30.61Z"/>
  <path class="cls-1" d="M667.73,354.1c30.9,53.52,34.34,119.17,9.2,175.62l10.42,4.64s0,0,0,0l5.3,2.36,9.55,4.25,6.18,2.75s0,0,0,0l24.42,10.87c4.82-10.85,8.88-22,12.16-33.4l-25.73-7.38c4.4-15.39,7.14-31.14,8.24-46.97l26.74,1.87c.83-11.83.83-23.71,0-35.55l-26.76,1.87c-1.11-15.85-3.85-31.59-8.24-46.94l25.75-7.39c-3.27-11.41-7.33-22.57-12.16-33.42l-24.45,10.88c-3.22-7.24-6.8-14.35-10.81-21.28-4-6.93-8.37-13.59-13.03-20l21.64-15.72c-6.97-9.61-14.6-18.71-22.85-27.24l-19.26,18.61c-11.11-11.48-23.37-21.73-36.55-30.62l15-22.24c-9.85-6.65-20.13-12.59-30.8-17.79l-11.75,24.09c-14.25-6.96-29.25-12.45-44.77-16.34l6.47-25.96c-11.52-2.88-23.23-4.94-35.02-6.18l-2.8,26.58s0,0,0,0l-.43,4.13-1.37,12.99-.15,1.45-1.65,15.68c61.46,6.46,116.59,42.27,147.49,95.78Z"/>
  <path class="cls-1" d="M370.3,509.39c-3.1,4-8.08,6-14.93,6h-5.87v4.53h71.09v-4.53h-5.99c-3.92,0-7.63-.98-11.14-2.94-2.61-1.47-4.32-3.22-5.14-5.26-1.06-2.69-1.59-8.24-1.59-16.64v-107.19c0-9.95,1.02-16.23,3.06-18.84,3.1-4,8.03-6,14.81-6h5.99v-4.53h-71.09v4.53h5.87c3.92,0,7.67.98,11.26,2.94,2.53,1.47,4.2,3.22,5.02,5.26,1.06,2.69,1.59,8.24,1.59,16.64v107.19c0,9.95-.98,16.23-2.94,18.84Z"/>
  <path class="cls-1" d="M636.98,374.73c-15.78-16.35-34.44-24.53-55.98-24.53s-40.34,7.22-55.92,21.66c-17.95,16.64-26.92,38.14-26.92,64.48s7.77,46.78,23.31,63.02c15.54,16.23,34.73,24.35,57.57,24.35s41.85-8.32,57.75-24.96c15.91-16.64,23.86-37.56,23.86-62.77s-7.89-44.89-23.68-61.24ZM617.4,496.79c-10.16,12.15-23.02,18.23-38.6,18.23-14.6,0-26.35-5.55-35.24-16.64-11.58-14.6-17.38-35.44-17.38-62.53s5.59-46.5,16.76-60.2c8.97-11.01,20.88-16.52,35.73-16.52,15.82,0,28.22,5.55,37.2,16.64,11.18,13.95,16.76,35.12,16.76,63.5,0,26.19-5.08,45.35-15.23,57.51Z"/>
  <path class="cls-1" d="M393.74,318.91h10.5c10.57,0,18.54,3.02,23.89,9.06,3.84,4.4,5.77,15.31,5.77,32.75v180.23c0,15.93-1.44,26.09-4.32,30.48-5.08,7.69-13.53,11.53-25.34,11.53h-10.5v7.62h216.28l23.89-75.8-6.8-1.44c-7.14,17.3-14.28,29.97-21.42,38-7.14,8.03-15.04,13.63-23.69,16.79-8.65,3.16-23.69,4.74-45.11,4.74h-20.39c-17.99,0-28.7-.68-32.13-2.06-3.43-1.37-5.97-3.5-7.62-6.39-2.2-4.25-3.3-12.08-3.3-23.48v-175.49c0-16.61,1.1-27.12,3.3-31.52,2.2-4.39,6.28-8.03,12.26-10.92,5.97-2.88,16.37-4.26,31.21-4.12v-7.62h-126.47v7.62Z"/>
</svg>